<svg width="268" height="182" viewBox="0 0 268 182" fill="none" xmlns="http://www.w3.org/2000/svg">
<path d="M114.985 77.493L105.667 73.2716C112.785 66.1087 118.299 68.0284 127.37 68.4754C126.423 74.3067 125.425 76.6329 121.119 80.7956C116.913 92.4695 120.959 96.2071 132.796 100.847C133.05 102.049 132.78 102.485 131.38 102.734C120.362 98.9476 112.739 98.7263 114.985 77.493Z" fill="#545151"/>
<path fill-rule="evenodd" clip-rule="evenodd" d="M40.7949 41.2825C41.1963 35.9005 43.9453 34.261 51.2925 32.6721C69.1381 29.068 73.4908 23.0314 83.4804 9.17706C84.2359 8.12936 85.0236 7.03696 85.8517 5.89752C88.6239 0.995282 91.0394 -0.00605966 96.2313 2.7506e-05H178.796C181.548 2.4649 183.543 2.75732 187.289 2.83082V4.48212H223.499L262.894 5.42572V7.78472C269.097 13.7772 267.734 18.1113 265.839 24.1357C265.608 24.8703 265.37 25.6299 265.135 26.4208C265.712 31.9027 266.008 34.9674 260.889 38.5696H187.289C183.364 45.6107 183.689 53.9871 184.192 66.9636C184.241 68.2271 184.291 69.5342 184.34 70.8879C178.591 69.7786 170.266 69.2878 164.288 74.5443C161.965 76.5873 161.749 78.0963 161.145 82.3099C160.808 84.6645 160.349 87.8637 159.334 92.4727C156.504 105.329 101.18 120.493 95.9954 100.139L40.7949 41.2825ZM101.775 77.4931C102.649 75.8204 103.987 74.425 105.667 73.2717C117.14 65.3972 144.576 68.8053 149.309 72.3035C156.721 77.7826 160.103 90.1269 152.729 95.6575C130.083 112.642 107.201 105.329 104.37 104.032C94.9033 99.6931 94.934 90.5853 101.775 77.4931Z" fill="#C4C4C4"/>
<path d="M185.991 25.949C185.933 30.8971 186.282 33.6333 187.524 38.4517H188.822C187.57 33.5825 188.491 31.4332 188.822 26.5387L185.991 25.949Z" fill="#A29F9F"/>
<path d="M65.9182 127.386C54.595 140.006 63.357 156.117 61.9079 153.925C60.4588 151.732 51.2924 174.094 51.2924 177.991C47.636 181.879 35.1726 181.909 21.805 180.699C-7.68248 153.925 -4.54736 116.278 15.0819 82.6828C26.9502 67.2471 31.5961 58.253 32.3025 40.9286H53.0617C57.7797 40.9286 62.1777 57.2624 69.6926 65.3442C78.0529 74.3352 93.7544 82.6828 93.7544 82.6828C93.7544 82.6828 97.2929 104.504 93.7544 101.673C75.2362 93.2983 57.4258 101.673 65.9182 127.386Z" fill="#545151"/>
<path d="M79.4824 9.20019H83.7286L77.9491 16.631C77.9491 16.631 73.7304 11.8866 70.0464 10.9694C67.6328 10.3685 66.5404 10.441 63.6771 10.9694C61.2086 9.63798 61.6738 8.47285 62.6156 6.3694C69.5077 5.25004 73.3292 4.93293 79.4824 9.20019Z" fill="#545151"/>
<path d="M185.755 25.949L265.017 26.5387C265.202 27.4018 265.253 27.7182 265.253 28.6618H186.109L185.755 25.949Z" fill="#A29F9F"/>
<path d="M185.873 26.5388C184.79 18.1642 185.331 12.7873 187.289 4.48218H188.468C186.602 12.7984 186.345 21.2311 189.176 27.0106L185.873 26.5388Z" fill="#A29F9F"/>
</svg>
