<?xml version="1.0" standalone="no"?>
<!DOCTYPE svg PUBLIC "-//W3C//DTD SVG 20010904//EN"
 "http://www.w3.org/TR/2001/REC-SVG-20010904/DTD/svg10.dtd">
<svg version="1.0" xmlns="http://www.w3.org/2000/svg"
 width="900.000000pt" height="591.000000pt" viewBox="0 0 900.000000 591.000000"
 preserveAspectRatio="xMidYMid meet">
<metadata>
Created by potrace 1.10, written by Peter Selinger 2001-2011
</metadata>
<g transform="translate(0.000000,591.000000) scale(0.100000,-0.100000)"
fill="#ffffff" stroke="none">
<path d="M8130 4341 c-77 -14 -163 -50 -225 -95 -49 -35 -118 -122 -140 -176
-4 -8 -13 -27 -21 -42 -8 -14 -14 -37 -14 -50 0 -12 -7 -41 -15 -63 -20 -55
-20 -256 0 -321 8 -27 15 -59 15 -71 0 -19 14 -53 42 -103 4 -8 11 -22 15 -30
23 -53 115 -147 171 -174 20 -10 50 -25 66 -33 19 -10 60 -16 125 -17 81 -1
101 2 126 19 40 27 59 45 80 78 9 15 23 27 31 27 7 0 21 -12 31 -27 10 -16 27
-35 38 -43 24 -18 121 -50 153 -50 l22 0 0 269 c0 203 3 271 13 279 6 6 28 12
47 14 27 2 35 8 35 22 0 18 -10 19 -230 19 -220 0 -230 -1 -230 -19 0 -13 8
-20 25 -22 76 -8 70 10 70 -208 l0 -195 -49 -50 c-47 -47 -50 -49 -106 -49
-52 0 -63 4 -101 36 -24 19 -44 41 -44 48 0 6 -5 17 -12 24 -30 30 -44 97 -68
319 -11 102 -11 109 20 348 7 58 23 114 41 145 5 8 13 24 18 35 16 37 86 91
134 104 42 12 54 11 104 -4 63 -20 66 -22 130 -82 45 -42 83 -100 83 -128 0
-32 31 -65 61 -65 l29 0 -2 162 c-3 190 -8 197 -79 124 -24 -25 -48 -46 -52
-46 -8 0 -62 36 -85 58 -7 6 -21 12 -31 12 -9 0 -22 5 -28 11 -14 14 -133 20
-193 10z m-230 -296 c-8 -9 -8 -20 -2 -31 6 -11 6 -30 0 -52 -6 -20 -8 -143
-6 -284 2 -162 0 -247 -7 -245 -5 2 -10 14 -10 27 0 13 -12 36 -26 51 -30 32
-36 59 -48 199 -9 94 4 196 29 242 6 10 10 24 10 31 0 8 9 22 20 32 11 10 18
20 15 23 -8 8 16 32 27 26 5 -3 4 -11 -2 -19z m627 -460 c8 -155 4 -218 -14
-236 -24 -24 -41 8 -42 79 -1 37 -3 96 -5 132 -3 35 -2 68 1 73 3 4 17 7 31 5
25 -3 27 -7 29 -53z"/>
<path d="M83 4323 c-7 -2 -13 -13 -13 -24 0 -15 7 -19 38 -19 20 0 43 -4 50
-8 10 -7 12 -118 10 -523 l-3 -514 -45 -5 c-40 -4 -45 -8 -45 -30 0 -22 4 -25
35 -23 203 14 272 14 347 3 65 -10 86 -11 96 -1 21 21 -5 46 -54 49 -24 2 -48
7 -52 11 -10 10 -16 440 -7 446 4 3 31 2 59 -2 36 -4 54 -11 58 -22 6 -20 33
-81 45 -101 4 -8 11 -22 14 -30 10 -27 49 -116 85 -195 13 -27 42 -68 65 -91
39 -39 46 -43 110 -48 38 -3 107 -11 153 -16 88 -12 106 -7 99 26 -2 13 -14
21 -40 24 -36 5 -78 43 -78 70 0 11 -17 48 -41 90 -5 8 -12 22 -15 30 -3 8
-11 29 -18 45 -71 164 -107 197 -224 211 -40 4 -62 11 -62 19 0 16 81 45 124
45 17 0 44 7 60 15 15 8 33 15 40 15 17 0 106 80 106 95 0 7 7 18 15 25 25 21
21 188 -6 240 -33 64 -147 150 -198 150 -10 0 -36 8 -57 17 -33 14 -80 17
-324 18 -157 1 -292 4 -300 7 -8 4 -21 4 -27 1z m521 -67 c49 -17 89 -54 115
-109 17 -36 21 -62 21 -151 0 -107 0 -108 -36 -162 -20 -30 -51 -62 -68 -72
-39 -21 -185 -42 -194 -28 -8 15 -6 522 3 536 9 15 99 7 159 -14z m-272 -101
c5 -16 5 -48 1 -70 -4 -22 -5 -44 -3 -50 1 -5 4 -62 5 -125 1 -63 8 -138 15
-167 11 -44 11 -54 0 -68 -11 -13 -13 -52 -12 -161 1 -113 -1 -152 -13 -175
-19 -35 -30 -37 -47 -6 -16 29 -15 796 1 855 1 2 11 2 23 0 14 -2 24 -13 30
-33z m565 -84 c18 -70 2 -161 -28 -161 -28 0 -47 141 -22 162 7 6 13 17 13 24
0 23 30 3 37 -25z m-113 -530 c10 -9 27 -36 38 -61 10 -25 30 -67 44 -93 51
-100 -29 -92 -87 8 -16 28 -29 60 -29 71 0 12 -7 27 -15 34 -8 7 -15 26 -15
42 0 26 3 29 23 22 12 -3 30 -14 41 -23z"/>
<path d="M6331 4316 c-18 -22 -5 -36 35 -36 20 0 42 -8 53 -19 18 -18 19 -43
19 -514 1 -377 -2 -498 -11 -504 -7 -4 -30 -10 -51 -13 -44 -6 -68 -32 -49
-51 10 -10 27 -10 76 -1 36 7 106 12 157 12 51 0 121 -5 157 -12 70 -13 90 -5
78 31 -5 16 -15 21 -43 21 -20 0 -42 4 -49 8 -8 5 -12 74 -13 237 -1 127 -1
236 -1 243 1 10 24 12 98 10 l97 -3 7 -30 c17 -78 56 -135 92 -135 l26 0 0
184 c-1 180 -1 184 -22 190 -25 6 -67 -28 -67 -54 0 -9 -5 -21 -11 -27 -6 -6
-14 -26 -18 -45 l-7 -33 -99 0 -100 0 4 245 c1 135 5 247 7 249 8 9 337 5 339
-4 10 -45 40 -136 52 -160 34 -66 94 -107 105 -72 2 6 3 73 2 147 l-1 135
-394 0 c-217 0 -408 4 -425 8 -22 6 -34 4 -43 -7z m253 -155 c3 -5 8 -85 11
-177 3 -93 9 -185 13 -204 5 -19 5 -51 1 -70 -4 -19 -10 -111 -13 -204 -4
-122 -9 -172 -18 -178 -16 -10 -20 -10 -38 2 -13 8 -15 54 -15 308 0 229 3
303 13 315 7 8 9 18 4 21 -12 7 -14 144 -2 151 6 3 10 15 10 26 0 19 24 27 34
10z"/>
<path d="M4279 4197 c-43 -36 -61 -82 -55 -136 9 -64 -2 -78 -50 -63 -43 13
-74 2 -74 -28 0 -16 9 -19 63 -22 l62 -3 -3 -255 c-4 -220 -2 -261 13 -300 33
-89 70 -143 110 -161 11 -5 27 -13 35 -18 60 -34 86 -41 171 -46 l94 -7 50 34
c57 38 89 91 100 166 7 53 -1 68 -33 58 -12 -4 -21 -24 -29 -65 -17 -91 -66
-141 -138 -141 -39 0 -91 45 -102 88 -4 15 -7 167 -8 337 l0 310 105 0 c130 1
130 1 130 24 0 39 -24 45 -128 33 -74 -9 -98 -8 -104 1 -5 7 -6 58 -2 115 l6
102 -93 0 c-82 -1 -97 -4 -120 -23z m109 -164 c21 -54 22 -71 11 -99 -7 -19
-11 -117 -12 -277 0 -220 -2 -247 -16 -245 -27 5 -40 51 -47 164 -6 97 -7 222
-4 264 1 8 -3 41 -10 73 -8 44 -8 67 1 95 16 51 17 52 43 52 16 0 27 -8 34
-27z"/>
<path d="M4340 3490 c0 -5 7 -10 15 -10 8 0 15 5 15 10 0 6 -7 10 -15 10 -8 0
-15 -4 -15 -10z"/>
<path d="M1485 4011 c-16 -4 -39 -13 -50 -19 -11 -6 -27 -13 -35 -16 -51 -19
-131 -100 -158 -158 -70 -154 -72 -299 -3 -448 18 -40 97 -128 126 -141 11 -5
27 -13 35 -18 53 -31 102 -42 204 -48 104 -5 115 -4 166 19 66 30 122 85 156
151 35 71 29 96 -21 83 -18 -5 -25 -15 -30 -44 -21 -124 -206 -204 -311 -136
-65 42 -107 144 -102 248 l3 66 135 5 c78 2 158 10 190 19 30 9 78 16 105 16
28 0 56 5 63 12 18 18 16 169 -3 194 -8 10 -15 26 -15 35 0 29 -100 118 -169
150 -56 27 -79 32 -161 35 -52 2 -108 0 -125 -5z m161 -53 c40 -45 51 -74 58
-149 9 -98 -2 -187 -23 -198 -9 -5 -62 -11 -118 -15 l-103 -7 0 94 c0 58 6
111 15 137 8 23 15 51 15 62 0 11 14 38 31 59 26 33 37 39 68 39 26 0 43 -7
57 -22z m-282 -274 c13 -74 13 -264 0 -275 -16 -13 -38 17 -58 78 -19 60 -21
131 -5 188 22 80 49 84 63 9z"/>
<path d="M2545 3999 c-43 -23 -95 -76 -95 -96 0 -22 -36 -14 -49 11 -25 46
-66 66 -168 81 -129 20 -143 19 -143 -3 0 -27 20 -42 55 -42 17 0 36 -5 43
-12 18 -18 17 -681 -1 -696 -7 -6 -30 -12 -52 -14 -36 -3 -40 -6 -43 -32 l-4
-29 59 9 c63 10 255 12 343 4 53 -5 55 -4 55 20 0 22 -5 26 -45 30 l-45 5 -3
304 -2 304 37 44 c60 75 134 91 181 40 50 -56 52 -67 52 -370 l0 -284 33 -37
c32 -37 33 -38 132 -46 55 -5 122 -12 148 -16 l49 -7 -4 29 c-3 26 -8 30 -46
35 -24 3 -47 11 -51 18 -4 6 -6 118 -3 247 5 255 -2 317 -44 385 -24 39 -94
99 -115 99 -7 0 -20 6 -28 14 -10 9 -51 17 -111 21 -86 6 -99 4 -135 -16z
m-208 -181 c9 -13 15 -139 16 -361 0 -85 -3 -111 -15 -124 -15 -14 -17 -13
-28 6 -8 15 -8 26 -1 34 6 9 7 33 0 72 -5 33 -9 65 -10 70 0 6 1 69 2 141 1
72 -1 136 -5 142 -16 26 22 44 41 20z m526 -48 c9 -39 12 -428 3 -437 -3 -4
-15 2 -27 13 -21 19 -21 12 -20 284 1 19 0 68 0 108 0 65 2 73 18 70 10 -2 21
-17 26 -38z"/>
<path d="M3413 4010 c-18 -6 -35 -15 -38 -20 -3 -6 -13 -10 -22 -10 -8 0 -33
-17 -54 -39 -37 -36 -39 -42 -39 -97 1 -87 49 -129 136 -122 l39 3 5 125 5
125 62 3 c77 4 130 -21 154 -70 25 -50 51 -177 47 -233 l-3 -50 -100 -6 c-94
-6 -147 -15 -255 -41 -25 -6 -59 -13 -77 -16 -26 -3 -36 -12 -52 -46 -23 -50
-33 -121 -25 -180 5 -36 16 -54 52 -90 25 -25 52 -46 59 -46 8 0 24 -7 36 -15
15 -9 56 -15 122 -17 134 -4 163 9 242 111 l19 23 23 -33 c38 -56 61 -66 180
-84 120 -17 138 -14 126 24 -5 16 -15 21 -40 21 -69 0 -65 -16 -65 279 -1 218
-3 269 -15 285 -8 11 -15 27 -15 36 0 8 -8 23 -17 32 -10 9 -32 31 -50 50 -18
19 -49 43 -70 53 -21 10 -51 25 -66 33 -35 17 -257 26 -304 12z m428 -282 c14
-27 20 -197 7 -222 -7 -12 -6 -22 1 -29 16 -16 14 -62 -3 -77 -8 -6 -12 -18
-9 -26 3 -8 0 -14 -6 -14 -6 0 -11 11 -11 24 0 14 -4 27 -9 31 -6 3 -9 13 -9
23 0 9 -4 53 -10 97 -19 150 10 266 49 193z m-147 -144 c25 -10 23 -201 -3
-249 -41 -76 -97 -112 -164 -105 -58 6 -89 113 -67 231 7 41 17 79 22 84 7 8
103 30 190 44 3 1 13 -2 22 -5z m-345 -196 c10 -28 3 -58 -15 -58 -7 0 -16 11
-20 25 -12 48 18 77 35 33z"/>
<path d="M5128 4014 c-14 -3 -32 -12 -38 -20 -7 -8 -20 -14 -29 -14 -9 0 -34
-18 -55 -39 -35 -36 -38 -43 -38 -99 0 -46 5 -65 19 -79 28 -28 76 -45 119
-41 l39 3 5 125 5 125 63 3 c50 2 71 -2 102 -19 22 -13 40 -27 40 -33 0 -5 6
-17 14 -25 15 -18 50 -213 45 -251 -4 -24 -6 -25 -109 -30 -58 -3 -118 -11
-133 -18 -16 -7 -43 -12 -61 -12 -19 0 -53 -7 -76 -15 -23 -8 -53 -15 -65 -15
-46 0 -83 -121 -69 -224 6 -38 15 -56 51 -92 25 -24 51 -44 59 -44 8 0 25 -7
38 -15 15 -10 54 -16 127 -17 103 -2 104 -2 157 32 28 19 52 40 52 46 0 6 11
20 24 33 l23 22 16 -25 c41 -61 64 -73 184 -91 123 -19 144 -15 124 23 -8 15
-23 22 -54 24 l-42 3 -5 270 c-4 226 -8 276 -22 306 -24 51 -100 131 -144 153
-22 10 -52 25 -67 33 -29 15 -241 27 -299 17z m417 -281 c17 -41 28 -212 15
-233 -5 -8 -4 -22 2 -33 11 -21 -10 -109 -25 -104 -17 5 -39 86 -28 104 6 11
6 24 -1 37 -17 32 -2 266 18 266 2 0 11 -17 19 -37z m-133 -153 c16 0 3 -219
-15 -253 -45 -86 -148 -126 -196 -78 -40 40 -49 142 -24 265 l8 40 95 17 c52
9 101 15 108 13 8 -2 18 -4 24 -4z m-358 -149 c3 -5 -1 -14 -9 -21 -14 -11
-13 -15 5 -27 11 -8 20 -21 20 -29 0 -20 -30 -30 -41 -13 -10 16 -12 83 -2 92
9 10 21 9 27 -2z"/>
<path d="M7347 3373 c-32 -31 -37 -43 -37 -82 1 -69 56 -121 128 -121 31 0 46
7 75 37 32 31 37 43 37 83 0 40 -5 52 -37 83 -31 32 -43 37 -83 37 -40 0 -52
-5 -83 -37z"/>
<path d="M1486 2105 c-41 -12 -96 -64 -96 -91 0 -48 75 -114 128 -114 12 0 24
-4 27 -10 3 -5 15 -10 25 -10 18 0 60 -35 60 -50 0 -4 -11 -19 -25 -34 -19
-21 -33 -26 -71 -26 -39 0 -51 5 -75 31 -32 34 -62 35 -67 2 -2 -16 8 -30 39
-52 53 -39 132 -43 185 -10 111 68 69 176 -79 204 -50 10 -90 48 -81 78 9 30
22 37 70 37 26 0 51 -7 67 -20 31 -25 57 -26 57 -2 0 48 -95 87 -164 67z"/>
<path d="M712 2098 c-8 -8 -12 -69 -12 -190 0 -153 2 -179 16 -185 33 -12 38
14 39 193 0 151 -2 177 -16 185 -10 5 -20 4 -27 -3z"/>
<path d="M1024 2101 c-38 -10 -100 -64 -120 -107 -31 -64 -15 -153 39 -211 48
-53 138 -77 200 -54 39 15 96 70 117 114 21 43 27 112 10 122 -5 3 -10 15 -10
26 0 28 -76 97 -119 109 -41 11 -72 11 -117 1z m139 -67 c58 -42 75 -156 31
-205 -23 -26 -86 -59 -112 -59 -25 0 -82 28 -106 52 -39 41 -40 145 -1 188 46
51 136 62 188 24z"/>
<path d="M2031 2097 c-7 -7 -11 -69 -11 -184 0 -200 -4 -193 102 -193 71 0 92
9 86 36 -3 16 -15 20 -68 24 l-65 5 -2 145 c-1 80 -2 150 -2 156 -1 17 -27 24
-40 11z"/>
<path d="M2435 2099 c-41 -12 -94 -65 -116 -117 -21 -48 -25 -97 -9 -107 6 -3
10 -14 10 -24 0 -22 67 -101 85 -101 8 0 15 -5 17 -11 2 -6 28 -14 58 -17 83
-8 163 42 201 125 24 53 24 83 0 136 -46 100 -143 146 -246 116z m143 -68 c63
-46 80 -133 37 -197 -17 -27 -88 -64 -119 -63 -37 1 -98 43 -118 79 -26 47
-20 121 12 155 57 60 126 70 188 26z"/>
<path d="M2807 2103 c-11 -10 -8 -43 6 -71 8 -15 23 -47 35 -72 11 -25 34 -75
51 -111 17 -37 31 -73 31 -81 0 -19 36 -52 49 -44 5 3 13 21 17 38 3 18 10 39
15 48 5 8 18 38 29 65 12 28 27 64 35 80 62 136 64 145 25 145 -12 0 -25 -12
-34 -32 -43 -96 -56 -128 -56 -142 0 -8 -4 -18 -10 -21 -5 -3 -10 -14 -10 -23
-1 -51 -44 -50 -56 1 -3 17 -10 38 -15 47 -12 23 -46 102 -53 127 -12 38 -43
63 -59 46z"/>
<path d="M4305 2098 c-11 -6 -21 -12 -23 -13 -1 -1 -7 -16 -11 -33 -7 -24 -5
-40 9 -67 l19 -37 -39 -37 c-51 -48 -58 -80 -30 -126 12 -19 31 -42 43 -50 29
-20 79 -19 108 3 40 31 55 32 78 6 23 -26 56 -32 64 -10 3 7 -8 26 -24 42 -34
33 -36 45 -10 68 22 20 18 46 -6 46 -9 0 -22 -8 -29 -17 -12 -17 -15 -15 -48
16 -42 40 -43 44 -17 70 11 11 27 31 36 45 16 24 16 27 -4 60 -28 44 -74 58
-116 34z m74 -55 c10 -18 -11 -73 -29 -73 -27 0 -53 64 -33 83 13 13 52 7 62
-10z m-14 -170 c19 -21 35 -46 35 -55 0 -17 -46 -48 -71 -48 -18 0 -59 41 -59
58 0 19 39 82 51 82 5 0 24 -17 44 -37z"/>
<path d="M5687 2103 c-11 -10 -8 -43 6 -71 15 -30 37 -78 61 -132 8 -19 24
-56 35 -82 12 -26 21 -54 21 -63 0 -15 38 -37 51 -29 4 2 9 16 12 32 3 15 20
59 37 97 17 39 38 86 47 105 8 19 24 54 35 77 21 46 18 63 -12 63 -12 0 -25
-12 -34 -32 -43 -96 -56 -128 -56 -142 0 -8 -4 -17 -9 -21 -5 -3 -12 -19 -16
-36 -11 -49 -36 -32 -62 41 -36 101 -73 181 -88 192 -13 10 -20 10 -28 1z"/>
<path d="M6230 2101 l-95 -6 -3 -175 c-2 -156 -1 -176 15 -187 21 -16 199 -18
208 -3 3 6 3 19 0 31 -6 19 -12 19 -89 13 l-83 -7 -7 42 c-3 23 -3 53 0 67 5
21 11 24 33 20 24 -5 101 -9 127 -7 16 1 24 39 11 48 -7 5 -48 8 -92 8 l-80 0
-3 34 c-2 19 -1 45 3 59 6 25 6 25 91 18 71 -6 85 -5 90 9 6 15 -12 47 -25 43
-3 -1 -49 -4 -101 -7z"/>
<path d="M6924 2101 c-36 -9 -87 -52 -116 -99 -16 -27 -19 -45 -16 -96 5 -76
32 -119 102 -160 80 -47 160 -31 232 47 37 39 39 46 43 115 3 65 1 76 -23 110
-14 20 -40 47 -58 59 -37 24 -117 36 -164 24z m139 -67 c58 -45 76 -139 36
-195 -22 -31 -86 -69 -117 -69 -21 0 -81 28 -97 44 -27 29 -45 69 -45 101 0
46 39 107 82 129 41 21 106 16 141 -10z"/>
<path d="M3257 2094 c-4 -4 -7 -85 -7 -180 0 -205 -7 -194 129 -194 93 0 107
6 96 40 -6 19 -12 20 -89 14 l-83 -7 -6 45 c-11 83 -8 86 90 80 l85 -5 -4 29
-3 29 -79 -4 c-88 -4 -96 1 -96 59 0 57 7 61 101 58 78 -3 84 -2 84 17 0 19
-8 20 -106 23 -58 1 -108 -1 -112 -4z"/>
<path d="M3627 2093 c-4 -3 -7 -87 -7 -185 l0 -178 31 0 30 0 -2 65 c-3 76 10
97 38 67 27 -30 36 -43 62 -85 25 -41 55 -62 77 -53 24 9 16 29 -36 86 -43 48
-47 56 -33 65 9 6 31 23 50 39 28 24 33 34 33 73 0 38 -5 50 -34 79 -33 33
-36 34 -118 34 -47 0 -88 -3 -91 -7z m173 -58 c61 -55 -23 -150 -104 -119 -12
5 -16 21 -16 68 0 35 3 66 8 70 12 13 92 -1 112 -19z"/>
<path d="M4907 2093 c-4 -3 -7 -84 -7 -179 0 -202 0 -201 99 -191 70 7 109 26
155 79 34 39 36 44 36 113 0 66 -3 75 -31 108 -53 62 -86 77 -171 77 -41 0
-78 -3 -81 -7z m169 -60 c17 -9 39 -32 50 -51 53 -98 -17 -202 -136 -202 l-40
0 0 133 c0 74 3 137 8 141 10 11 82 -2 118 -21z"/>
<path d="M5329 2088 c-4 -67 -1 -350 5 -355 12 -12 200 -15 216 -4 12 8 13 14
4 28 -10 15 -23 17 -87 15 -84 -4 -97 5 -97 67 0 56 19 63 131 46 29 -4 49 10
49 37 0 21 0 21 -100 22 l-75 1 -3 51 c-3 48 -1 52 23 58 15 4 52 4 83 1 62
-6 89 4 79 29 -5 13 -25 16 -117 16 -81 0 -110 -3 -111 -12z"/>
<path d="M6499 2088 c-4 -80 4 -345 11 -352 5 -5 45 -11 89 -14 67 -4 82 -2
87 11 12 33 -11 52 -68 52 l-53 0 -2 145 c-1 80 -2 151 -2 158 -1 7 -14 12
-31 12 -17 0 -30 -5 -31 -12z"/>
<path d="M7307 1923 c-5 -194 0 -216 42 -193 22 11 22 7 7 125 0 6 26 12 59
15 70 6 107 27 130 76 21 45 13 79 -28 122 -30 31 -33 32 -118 32 l-86 0 -6
-177z m178 111 c21 -27 18 -67 -6 -93 -17 -18 -29 -21 -72 -19 l-51 3 1 59 c0
37 6 62 14 68 22 15 98 3 114 -18z"/>
<path d="M7677 2093 c-4 -3 -7 -86 -7 -183 l0 -177 31 -7 c40 -8 172 -8 193 0
9 3 16 12 16 20 0 24 -36 34 -101 27 -71 -7 -89 6 -89 62 0 55 16 66 85 56 52
-8 62 -7 80 10 31 31 6 44 -83 44 l-77 0 -3 53 c-3 59 -11 55 100 56 81 1 94
6 85 31 -5 12 -26 15 -115 15 -60 0 -112 -3 -115 -7z"/>
<path d="M8055 2088 c-3 -7 -4 -92 -2 -188 2 -168 3 -175 22 -175 18 0 20 7
21 73 1 40 4 75 7 78 15 15 46 -13 87 -76 46 -71 64 -86 94 -74 25 9 21 18
-40 83 -56 60 -56 61 -32 70 14 5 39 23 56 41 44 44 43 83 -4 138 l-36 42 -84
0 c-59 0 -86 -4 -89 -12z m159 -49 c61 -48 15 -133 -68 -127 l-41 3 -3 59 c-2
32 -1 65 2 72 8 22 79 17 110 -7z"/>
</g>
</svg>
