<svg width="266" height="200" viewBox="0 0 266 200" fill="none" xmlns="http://www.w3.org/2000/svg">
<path d="M242.781 146.625L232.738 153.032L240.78 151.344L242.781 146.625Z" fill="#545151"/>
<path d="M16.787 70.1465C16.7734 63.6447 51.7893 -0.247608 55.1699 4.86401C57.0611 7.72364 51.7239 28.1678 55.1699 29.8203C55.1699 29.8203 218.949 127.686 231.711 139.602C244.473 151.519 221.791 200.349 206.853 194.005C196.039 189.412 40.3531 55.7552 36.7009 65.3003C36.7073 65.3694 36.6881 65.4579 36.6416 65.5675C36.6508 65.4685 36.6707 65.3795 36.7009 65.3003C36.5259 63.3883 16.8001 76.4218 16.787 70.1465Z" fill="#363535"/>
<path d="M75.0749 42.1681C76.4922 41.6108 67.8045 32.6437 62.8344 35.1736C57.8644 37.7035 45.2853 67.4733 46.5138 69.5635C47.7423 71.6538 57.1471 76.5409 57.0057 75.9752C55.8399 71.3122 66.9802 45.3514 75.0749 42.1681Z" fill="#B5850C"/>
<path d="M212.907 126.514C214.884 121.78 221.284 124.503 219.957 131.365C218.631 138.227 195.767 181.146 191.401 182.816C187.034 184.486 182.714 178.179 184.181 176.964C189.368 172.671 208.067 138.104 212.907 126.514Z" fill="#B5850C"/>
</svg>
