<svg width="279" height="278" viewBox="0 0 279 278" fill="none" xmlns="http://www.w3.org/2000/svg">
<path d="M34.7484 32.8541L59.2971 39.9115C74.9762 24.3684 77.6544 18.8267 76.0219 0C118.196 13.4835 127.877 37.949 121.635 74.5014C121.716 74.6565 95.8386 40.7958 80.2031 50.1744C73.8165 54.0052 74.0648 62.109 74.8815 64.2384C76.9683 69.6801 133.011 123.105 131.898 123.155C127.717 128.857 127.717 128.097 122.775 128.477C122.961 128.137 75.6354 78.1357 67.2793 73.7412C60.3423 70.093 56.8034 72.8537 52.964 79.6718C45.4991 92.9283 75.2679 119.413 76.0114 119.358C76.0149 119.357 76.0183 119.356 76.0218 119.354C76.0194 119.357 76.016 119.358 76.0114 119.358C26.3231 138.444 5.90471e-05 70.3202 5.90471e-05 70.3202C-0.0345782 70.4652 15.1758 76.523 29.2286 69.2067C36.794 65.2679 44.8529 53.9755 44.8529 53.9755L34.7484 32.8541Z" fill="#817D7D"/>
<path d="M117.454 69.56C121.263 31.7219 111.829 17.6646 76.402 4.94142L76.0219 0C117.834 12.9237 128.477 36.4905 121.635 74.5014L117.454 69.56Z" fill="#C4C4C4"/>
<path d="M128.857 119.734C128.676 124.687 125.797 125.515 120.875 126.458C173.516 183.309 206.407 212.769 261.515 267.859L270.258 259.995L128.857 119.734Z" fill="#613615"/>
<path d="M71.1803 115.147C34.2735 121.535 19.5889 112.565 4.94151 71.8406L9.15527e-05 70.3202C15.2335 118.492 39.3937 129.716 76.2852 119.778L71.1803 115.147Z" fill="#C4C4C4"/>
<path d="M59.2971 39.9114C59.2971 39.9114 56.3163 52.5174 44.853 53.9754L34.59 32.6893L59.2971 39.9114Z" fill="#6F370B"/>
<path d="M279 259.234C268.033 263.566 264.885 266.698 260.755 277.86C260.755 277.86 270.69 275.967 274.819 271.398C278.684 267.121 279 259.234 279 259.234Z" fill="#545151"/>
<path d="M253.533 259.995C259.427 259.212 261.11 258.135 262.275 252.012L269.878 259.234H279C269.558 264.988 266.264 267.974 260.755 277.86L259.995 267.597L253.533 259.995Z" fill="#868181"/>
<path d="M128.857 119.734L127.337 118.214C126.42 122.627 125.108 124.089 119.354 124.676L120.875 126.576C127.288 125.94 128.666 124.214 128.857 119.734Z" fill="#A29F9F"/>
</svg>
