<svg width="84" height="84" viewBox="0 0 84 84" fill="none" xmlns="http://www.w3.org/2000/svg">
<path d="M17.354 49.7518V39.4814C7.48479 34.426 -0.856982 26.8963 1.57129 16.1647C3.57435 7.31225 13.117 0.562848 19.2922 1.17536C11.6752 7.1639 15.1401 11.5482 30.6447 20.6059H53.6266C66.9434 13.7825 70.0708 9.6304 61.6564 1.17536C64.5229 -0.310229 82.1973 7.77003 82.1463 20.6059C82.1098 29.7748 71.6937 40.007 70.24 39.4814L71.1507 49.7518C76.1325 69.9561 71.1885 72.4942 63.1331 76.6297L63.0409 76.677C78.7253 73.11 78.2698 81.1183 77.1622 81.951C76.0547 82.7838 66.7652 80.8864 59.1644 81.951C59.8418 78.4926 59.4499 77.165 57.7799 75.5667C47.7235 78.9711 41.5959 77.7976 30.6447 75.5667L26.7683 82.7838C17.6032 82.9864 14.0533 83.4085 9.04732 81.951C9.04732 78.6201 12.7533 73.8447 21.5074 77.5098C9.40036 65.3111 12.2206 62.0423 17.354 49.7518Z" fill="#dcdcdc" stroke="#808080" stroke-width="2"/>
</svg>
