<svg width="88" height="351" viewBox="0 0 88 351" fill="none" xmlns="http://www.w3.org/2000/svg">
<path d="M80.6002 13.9245C80.1508 35.947 6.46404 102.706 0 143.26L3.74885 148.08C4.10223 144.272 6.65816 142.859 9.63989 143.26C19.5476 174.054 14.1024 198.207 9.63989 208.061C6.96214 209.132 5.1837 208.22 3.74885 203.509L0 208.061C19.5476 262.152 77.5712 318.92 80.6002 332.041C83.6292 345.162 69.6214 340.61 69.6214 340.61C69.6214 340.61 70.4685 351.046 73.6381 350.517C83.278 348.911 88.29 342.221 86.759 334.183C83.5457 317.313 15.4617 243.364 22.2253 204.58C30.832 180.633 22.9977 153.399 22.2253 149.151C14.1921 104.968 78.7258 37.7573 85.4202 20.6192C92.1145 3.48107 72.567 0 72.567 0L69.6214 9.90767C74.5793 6.53064 80.6933 9.36006 80.6002 13.9245Z" fill="#EDA212"/>
<path d="M21.422 141.117L9.37213 143.26C16.2089 169.037 16.3204 183.174 9.37213 207.793L21.422 209.668C28.8816 184.373 28.5882 169.306 21.422 141.117Z" fill="#613615"/>
<path d="M11.5143 198.421C15.2632 201.902 23.2964 202.17 23.2964 202.17M13.121 158.79C17.3946 156.007 23.0287 156.113 25.1709 157.184M13.9243 165.217C18.6054 164.02 21.1542 163.342 25.9742 163.342M14.4599 172.715C20.3509 170.305 26.7775 172.715 26.7775 172.715M26.7775 179.944C22.1184 179.231 18.8239 179.361 14.4599 179.944M25.9742 188.246C25.9742 188.246 18.4765 188.246 13.9243 186.371M24.3675 196.011C19.9384 196.187 17.4325 195.845 12.8532 193.065M11.7821 151.828C15.5181 148.043 18.3707 148.221 23.5642 149.686" stroke="black"/>
</svg>
