<svg width="313" height="197" viewBox="0 0 313 197" fill="none" xmlns="http://www.w3.org/2000/svg">
<path d="M281.381 160.878C262.517 159.013 253.135 150.364 238.255 133.881L230.449 139.307C240.658 150.57 246.776 156.612 260.612 165.378C269.54 169.968 274.321 170.853 282.704 171.333L281.381 160.878Z" fill="#501E1F"/>
<path d="M231.905 141.027L238.651 134.146C238.651 134.146 236.932 130.572 235.741 130.44C234.55 130.308 227.539 138.38 227.671 139.572C227.804 140.763 231.905 141.027 231.905 141.027Z" fill="#B5850C"/>
<path d="M241.694 127.396C241.694 127.396 237.196 129.911 235.476 130.837C233.757 131.763 228.068 139.439 228.068 139.439L225.29 145.924C225.29 145.924 222.247 141.821 221.189 139.439C220.131 137.057 221.189 133.484 221.189 133.484L217.75 132.028C217.75 132.028 228.13 119.307 235.476 122.235C238.408 123.403 241.694 127.396 241.694 127.396Z" fill="#8B6400"/>
<path d="M282.969 159.952C277.877 160.731 279.265 160.614 279.265 160.614C279.265 160.614 281.551 160.822 281.513 162.069C281.476 163.317 282.217 167.462 280.852 169.348C280.093 170.397 277.942 170.936 277.942 170.936L286.937 173.583C289.142 172.881 288.06 159.173 282.969 159.952Z" fill="#B5850C"/>
<path d="M303.738 154.923L296.859 156.776L307.31 175.304L311.94 174.377C311.94 174.377 314.718 171.201 311.279 163.128C307.839 155.055 303.738 154.923 303.738 154.923Z" fill="#8B6400"/>
<path d="M296.594 157.041C296.594 157.041 295.536 158.496 296.065 160.349C296.594 162.202 301.225 172.127 301.225 172.127C301.225 172.127 301.489 174.245 303.077 175.039C304.664 175.833 307.31 175.039 307.31 175.039C308.949 166.764 301.225 157.956 299.505 157.041C297.785 156.125 297.1 157.312 296.594 157.041Z" fill="#5F4733"/>
<path d="M299.902 160.614C295.082 160.539 291.7 161.54 290.377 162.731C289.054 163.922 292.494 173.054 295.007 173.318C297.521 173.583 305.061 171.995 305.061 171.995C306.297 171.732 304.721 160.688 299.902 160.614Z" fill="#B5850C"/>
<path d="M308.368 185.362C296.727 179.936 293.552 171.466 293.552 171.466L291.171 165.643C291.171 165.643 282.836 136.131 281.513 131.366C280.191 126.602 276.486 119.191 274.105 115.75C271.724 112.309 263.654 106.221 259.289 105.427C254.923 104.633 250.822 105.427 250.822 105.427L230.449 113.236C230.449 113.236 225.29 111.118 225.952 107.942C226.613 104.766 219.866 112.309 219.866 112.309L205.579 122.102C205.579 122.102 203.198 126.602 205.579 128.19C207.96 129.778 209.415 129.513 209.415 129.513L208.092 142.748C208.092 142.748 205.579 148.041 202.272 145.791C198.964 143.542 199.361 139.439 199.361 139.439C199.361 139.439 196.98 145.791 199.361 148.041C201.742 150.291 205.579 151.35 205.579 151.35C205.579 151.35 217.088 154.658 217.088 151.35C217.088 148.041 218.676 132.16 218.676 132.16C218.676 132.16 229.656 122.102 241.959 122.102C254.262 122.102 260.347 128.322 270.004 136.131C279.661 143.939 287.466 172.657 287.466 172.657C287.466 172.657 294.61 183.773 298.05 186.156C301.489 188.538 304.267 188.538 304.267 188.538C304.267 188.538 320.01 190.788 308.368 185.362Z" fill="#8C7058"/>
<g filter="url(#filter0_d)">
<path d="M243.149 119.588C237.196 122.05 234.815 122.896 234.815 122.896C234.815 122.896 236.545 122.632 245.663 122.896C254.781 123.161 260.612 131.366 269.078 137.586C277.545 143.806 280.72 156.511 282.572 160.614C284.424 164.716 284.553 168.696 287.07 173.318C290.193 179.054 295.3 183.641 297.785 186.155C300.271 188.67 313.253 190.258 303.077 186.155C292.901 182.053 277.28 136.792 273.444 129.513C269.607 122.235 249.102 117.126 243.149 119.588Z" fill="#5F4733"/>
</g>
<path d="M155.573 52.7555L225.29 107.412C220.178 115.039 215.82 118.285 205.182 122.102C151.651 89.8118 123.231 66.6064 62.9701 33.8307C66.6763 29.9341 67.468 25.0961 62.9701 22.9787C58.4722 20.8613 55.292 23.1759 51.8577 28.8017C35.5879 17.9721 22.4164 16.4386 0 15.9646C39.243 -3.22096 62.1382 -8.55023 109.139 19.4055L152.001 50.241L150.017 56.9904L155.573 52.7555Z" fill="#A29F9F"/>
<path d="M104.774 26.2872L146.181 54.2113C166.194 66.7968 218.808 107.015 218.808 107.015C217.625 113.845 214.147 115.498 205.314 116.412C200.708 119.413 142.833 65.111 67.7325 30.1251C71.4388 26.2286 65.0867 20.1995 65.0867 20.1995C65.0867 20.1995 57.1599 17.0266 51.8577 22.9787C39.5547 16.3616 37.1735 14.7735 20.2404 12.6561C37.6968 5.99667 50.3996 -2.70084 104.774 26.2872Z" fill="#C4C4C4"/>
<defs>
<filter id="filter0_d" x="230.815" y="118.962" width="80.103" height="77.7097" filterUnits="userSpaceOnUse" color-interpolation-filters="sRGB">
<feFlood flood-opacity="0" result="BackgroundImageFix"/>
<feColorMatrix in="SourceAlpha" type="matrix" values="0 0 0 0 0 0 0 0 0 0 0 0 0 0 0 0 0 0 127 0"/>
<feOffset dy="4"/>
<feGaussianBlur stdDeviation="2"/>
<feColorMatrix type="matrix" values="0 0 0 0 0 0 0 0 0 0 0 0 0 0 0 0 0 0 0.25 0"/>
<feBlend mode="normal" in2="BackgroundImageFix" result="effect1_dropShadow"/>
<feBlend mode="normal" in="SourceGraphic" in2="effect1_dropShadow" result="shape"/>
</filter>
</defs>
</svg>
