<svg width="212" height="340" viewBox="0 0 212 340" fill="none" xmlns="http://www.w3.org/2000/svg">
<path d="M0 108.253V92.5643H211.351V108.253H113.856L118.339 340H93.909L88.53 108.253H0Z" fill="#613615"/>
<path d="M101.978 0C148.372 -2.32854e-05 122.597 56.2558 122.597 56.2558C124.692 70.1036 132.374 73.1488 149.044 76.4272C163.657 81.4612 170.884 80.7068 182.439 74.41C185.628 95.6232 186.367 107.207 178.181 125.063C166.596 116.842 162.032 117.884 157.113 129.097C159.367 167.639 151.691 182.236 133.355 204.628H71.4964C52.9125 188.903 47.5174 171.224 46.1701 125.063C41.4477 119.124 37.0426 119.764 27.3434 125.063C15.4763 103.812 15.9532 92.8737 24.4298 74.41C35.5958 78.5705 42.1949 78.8771 54.4627 76.4272C75.1539 70.0931 80.0594 65.5527 80.6856 56.2558C80.6856 56.2558 55.5834 2.32854e-05 101.978 0Z" fill="#FDDA96"/>
<path fill-rule="evenodd" clip-rule="evenodd" d="M105.788 175.491C127.821 175.491 145.682 157.63 145.682 135.597C145.682 116.77 128.873 101.305 105.788 98.3916C83.7546 98.3916 65.8932 113.563 65.8932 135.597C65.8932 157.63 83.7546 175.491 105.788 175.491ZM102.874 169.44C119.832 169.44 136.11 155.692 136.11 138.734C136.11 121.776 122.586 105.115 105.628 105.115C88.6702 105.115 72.1687 121.776 72.1687 138.734C72.1687 155.692 85.916 169.44 102.874 169.44Z" fill="#A01D0E" fill-opacity="0.67"/>
<path fill-rule="evenodd" clip-rule="evenodd" d="M124.316 137.084C124.293 125.566 114.982 116.247 103.52 116.271C93.7257 116.291 85.6987 125.095 84.2078 137.167C84.2315 148.686 92.1434 158.007 103.605 157.984C115.068 157.96 124.34 148.603 124.316 137.084ZM121.172 138.614C121.153 129.749 113.984 121.254 105.162 121.272C96.3404 121.29 87.6876 128.377 87.7058 137.243C87.7241 146.109 96.4091 154.718 105.231 154.699C114.053 154.681 121.19 147.48 121.172 138.614Z" fill="#A01D0E" fill-opacity="0.67"/>
<path fill-rule="evenodd" clip-rule="evenodd" d="M112.595 137.728C112.585 132.829 108.626 128.866 103.751 128.876C99.5863 128.885 96.1728 132.629 95.5388 137.763C95.5488 142.661 98.9134 146.625 103.788 146.615C108.662 146.605 112.605 142.626 112.595 137.728ZM111.258 138.378C111.25 134.608 108.201 130.996 104.45 131.003C100.698 131.011 97.0186 134.025 97.0263 137.795C97.0341 141.565 100.727 145.226 104.479 145.219C108.231 145.211 111.266 142.148 111.258 138.378Z" fill="#A01D0E" fill-opacity="0.67"/>
<path d="M122.373 56.2558C105.513 58.9512 95.6238 60.6959 80.6855 57.8247C76.2496 60.2308 77.6131 62.2676 78.2201 66.5656H126.407C125.795 62.4655 124.941 60.2059 122.373 56.2558Z" fill="#613615"/>
</svg>
