<svg width="66" height="106" viewBox="0 0 66 106" fill="none" xmlns="http://www.w3.org/2000/svg">
<path d="M21.4219 46.4844H31.1953C37.3359 46.3906 42.1641 44.7734 45.6797 41.6328C49.1953 38.4922 50.9531 34.25 50.9531 28.9062C50.9531 16.9062 44.9766 10.9062 33.0234 10.9062C27.3984 10.9062 22.8984 12.5234 19.5234 15.7578C16.1953 18.9453 14.5312 23.1875 14.5312 28.4844H1.52344C1.52344 20.375 4.47656 13.6484 10.3828 8.30469C16.3359 2.91406 23.8828 0.21875 33.0234 0.21875C42.6797 0.21875 50.25 2.77344 55.7344 7.88281C61.2188 12.9922 63.9609 20.0938 63.9609 29.1875C63.9609 33.6406 62.5078 37.9531 59.6016 42.125C56.7422 46.2969 52.8281 49.4141 47.8594 51.4766C53.4844 53.2578 57.8203 56.2109 60.8672 60.3359C63.9609 64.4609 65.5078 69.5 65.5078 75.4531C65.5078 84.6406 62.5078 91.9297 56.5078 97.3203C50.5078 102.711 42.7031 105.406 33.0938 105.406C23.4844 105.406 15.6562 102.805 9.60938 97.6016C3.60938 92.3984 0.609375 85.5312 0.609375 77H13.6875C13.6875 82.3906 15.4453 86.7031 18.9609 89.9375C22.4766 93.1719 27.1875 94.7891 33.0938 94.7891C39.375 94.7891 44.1797 93.1484 47.5078 89.8672C50.8359 86.5859 52.5 81.875 52.5 75.7344C52.5 69.7812 50.6719 65.2109 47.0156 62.0234C43.3594 58.8359 38.0859 57.1953 31.1953 57.1016H21.4219V46.4844Z" fill="black"/>
</svg>
