<svg width="66" height="105" viewBox="0 0 66 105" fill="none" xmlns="http://www.w3.org/2000/svg">
<path d="M4.48438 51.6719L9.6875 0.625H62.1406V12.6484H20.7266L17.6328 40.5625C22.6484 37.6094 28.3438 36.1328 34.7188 36.1328C44.0469 36.1328 51.4531 39.2266 56.9375 45.4141C62.4219 51.5547 65.1641 59.875 65.1641 70.375C65.1641 80.9219 62.3047 89.2422 56.5859 95.3359C50.9141 101.383 42.9688 104.406 32.75 104.406C23.7031 104.406 16.3203 101.898 10.6016 96.8828C4.88281 91.8672 1.625 84.9297 0.828125 76.0703H13.1328C13.9297 81.9297 16.0156 86.3594 19.3906 89.3594C22.7656 92.3125 27.2188 93.7891 32.75 93.7891C38.7969 93.7891 43.5312 91.7266 46.9531 87.6016C50.4219 83.4766 52.1562 77.7812 52.1562 70.5156C52.1562 63.6719 50.2812 58.1875 46.5312 54.0625C42.8281 49.8906 37.8828 47.8047 31.6953 47.8047C26.0234 47.8047 21.5703 49.0469 18.3359 51.5312L14.8906 54.3438L4.48438 51.6719Z" fill="black"/>
</svg>
