<svg width="65" height="106" viewBox="0 0 65 106" fill="none" xmlns="http://www.w3.org/2000/svg">
<path d="M64.7031 60.3359C64.7031 75.5703 62.1016 86.8906 56.8984 94.2969C51.6953 101.703 43.5625 105.406 32.5 105.406C21.5781 105.406 13.4922 101.797 8.24219 94.5781C2.99219 87.3125 0.273438 76.4844 0.0859375 62.0938V44.7266C0.0859375 29.6797 2.6875 18.5 7.89062 11.1875C13.0938 3.875 21.25 0.21875 32.3594 0.21875C43.375 0.21875 51.4844 3.75781 56.6875 10.8359C61.8906 17.8672 64.5625 28.7422 64.7031 43.4609V60.3359ZM51.6953 42.5469C51.6953 31.5312 50.1484 23.5156 47.0547 18.5C43.9609 13.4375 39.0625 10.9062 32.3594 10.9062C25.7031 10.9062 20.8516 13.4141 17.8047 18.4297C14.7578 23.4453 13.1875 31.1562 13.0938 41.5625V62.375C13.0938 73.4375 14.6875 81.6172 17.875 86.9141C21.1094 92.1641 25.9844 94.7891 32.5 94.7891C38.9219 94.7891 43.6797 92.3047 46.7734 87.3359C49.9141 82.3672 51.5547 74.5391 51.6953 63.8516V42.5469Z" fill="black"/>
</svg>
