<svg width="261" height="350" viewBox="0 0 261 350" fill="none" xmlns="http://www.w3.org/2000/svg">
<path d="M183.337 338.5C180.161 338.372 176.861 336.729 177.837 332.5C178.814 328.271 181.514 328.573 185.837 328.5L188.837 330.5L194.837 334L200.337 337.5L204.837 340L209.837 343C210.207 343.06 208.564 348.556 206.837 349C205.111 349.444 202.854 349.938 201.837 346.5C199.473 346.497 198.137 347.109 195.837 343.5C194.837 344 191.504 343.205 190.837 341C187.337 341 186.337 338.5 186.337 338.5C185.749 338.989 184.084 338.53 183.337 338.5Z" fill="#639414"/>
<path d="M188.837 330.5L185.837 328.5C181.514 328.573 178.814 328.271 177.837 332.5C176.861 336.729 180.161 338.372 183.337 338.5C184.084 338.53 185.749 338.989 186.337 338.5M188.837 330.5L194.837 334M188.837 330.5C188.837 330.5 188.733 336.508 186.337 338.5M194.837 334L190.837 341M194.837 334L200.337 337.5M190.837 341C187.337 341 186.337 338.5 186.337 338.5M190.837 341C191.504 343.205 194.837 344 195.837 343.5M195.837 343.5L200.337 337.5M195.837 343.5C198.137 347.109 199.473 346.497 201.837 346.5M200.337 337.5L204.837 340M204.837 340L201.837 346.5M204.837 340L209.837 343C210.207 343.06 208.564 348.556 206.837 349C205.111 349.444 202.854 349.938 201.837 346.5" stroke="#639414"/>
<path d="M123.663 112.5C117.163 115.5 111.381 112.851 82.1629 148L69.1629 134C71.9835 123.651 71.1002 117.849 69.1629 107.5C61.1629 91 36.6628 95 39.6629 125C41.1377 133.747 44.663 139 52.663 141C58.4172 155.515 67.663 180.607 82.1629 177.5C89.163 176 106.647 153.987 123.663 148C123.663 148 130.163 109.5 123.663 112.5Z" fill="#639414"/>
<path d="M111.663 209.5C109.663 169.5 106.455 145.865 125.663 112C163.387 124.584 182.08 125.905 202.663 98.5L217.163 138.5C215.445 173.13 215.808 189.681 218.163 215.5L111.663 209.5Z" fill="#639414"/>
<path d="M85.6628 235C108.129 237.819 120.391 236.409 142.163 233L137.163 218C137.163 218 77.1628 214 70.6628 220.5C60.2224 230.94 41.8019 253.927 41.1628 258C40.8222 260.171 31.8046 248.843 32.1628 245.5H5.66283C5.66283 245.5 4.1752 250.013 4.16283 253C4.12254 262.728 14.8828 264.027 19.6628 272.5C24.2782 280.681 19.9731 290.4 28.1628 295C29.6628 295.842 36.2306 298.434 41.1628 297C46.095 295.566 50.1628 274 50.1628 274C72.7827 255.459 87.7919 244.184 85.6628 235Z" fill="#639414"/>
<path d="M34.6628 235C36.844 239.083 32.1628 245.5 32.1628 245.5H23.6628C23.6628 245.5 22.1898 236.907 25.6628 234C29.2689 230.982 33.8922 233.558 34.6628 235Z" fill="#639414"/>
<path d="M19.3294 234.5C22.3766 233.167 23.3337 235.511 24.1628 237L23.6628 245.5H19.3294H15.4776H10.6628H7.16276L5.66284 246C5.66284 246 1.05332 242.564 0.16276 240.5C-0.727804 238.436 2.19041 236.002 5.16276 237C6.01156 234.546 9.85978 234.346 10.6628 235.5C12.2328 233.482 13.4654 233.501 15.9591 234.5C17.2754 232.957 18.0133 233.156 19.3294 234.5Z" fill="#639414"/>
<path d="M179.663 267L216.163 228L178.163 224C178.163 224 150.663 272 155.163 279.5C157.817 283.924 166.663 285.5 166.663 285.5C181.643 295.978 190.163 294.5 206.663 301C195.804 308.74 191.028 314.658 185.663 329L209.663 343.5C211.206 341.265 231.972 307.683 233.163 303C234.879 296.251 231.22 292.344 224.163 291.5C219.599 290.955 209.663 291.5 209.663 291.5C202.29 286.644 199.21 285.066 179.663 267Z" fill="#639414"/>
<path d="M209.663 189.5C170.189 192.602 147.638 195.943 110.663 189.5L108.663 205.5L81.6628 213L89.1628 214.5L87.6628 216L101.163 214.5L95.1628 222.5H116.663L106.163 238L129.663 222.5L120.163 237L135.663 232.5V245L148.663 232.5L141.663 245L158.663 232.5L150.663 248.5L174.663 234.5L184.663 245L186.163 232.5L201.663 238L196.163 227L209.663 237L208.663 228L219.163 234.5L215.663 225.5L228.163 227L209.663 189.5Z" fill="#4C2C13"/>
<g filter="url(#filter0_d)">
<path d="M230.663 151L200.163 132.5L201.163 97.5C201.163 97.5 209.275 99.7711 214.163 102C237.414 112.602 255.163 153 255.163 153L227.163 188C227.163 188 228.895 213.324 217.663 216C206.43 218.676 197.663 203 197.663 197.5C197.663 192.49 203.472 188.724 204.506 188.093C203.499 188.692 197.962 191.954 197.663 191.5C197.334 191 201.663 182.5 203.663 181.5C205.663 180.5 217.663 180 217.663 180L230.663 151Z" fill="#639414"/>
</g>
<path d="M116.663 39.5C107.004 70.0848 55.1868 119.205 53.6628 135.5C48.2403 137.512 46.2732 136.711 45.1628 131C49.3722 131.778 62.0555 61.6501 69.1628 36C73.8229 19.182 81.1917 -2.06691 98.1628 1.99996C114.752 5.97518 122.663 20.5 116.663 39.5Z" fill="#8B6400"/>
<path d="M73.6628 56C77.5812 50.3876 78.1992 47.1416 73.6628 41L55.6628 47.5L73.6628 56Z" fill="#C4C4C4"/>
<path d="M86.1628 13.5C84.2513 17.4871 83.0593 19.4828 78.1628 17.5V0L86.1628 13.5Z" fill="#C4C4C4"/>
<path d="M112.663 21C106.546 21.5348 104.032 20.412 103.663 12L119.163 6.5L112.663 21Z" fill="#C4C4C4"/>
<path d="M87.6628 61.5C83.4948 62.042 82.2343 63.3164 82.6628 68C88.3718 72.0736 91.668 73.2685 97.6628 74C94.8632 68.1358 92.8415 65.2488 87.6628 61.5Z" fill="#C4C4C4"/>
<path d="M77.1628 85.5C74.4791 85.7204 72.7527 85.585 73.6628 90L84.1628 100.5L77.1628 85.5Z" fill="#C4C4C4"/>
<path d="M69.6628 78.5C71.2643 75.5653 71.7191 73.9205 66.1628 71L50.1628 78.5H69.6628Z" fill="#C4C4C4"/>
<path d="M66.663 103.5C64.983 120.059 60.7875 127.495 43.163 135C35.9117 120.461 36.6627 115.5 43.6628 104C50.663 92.5 67.0181 100 66.663 103.5Z" fill="#108A1C"/>
<path d="M100.763 78.7991C99.6639 70.4152 107.854 64.8554 113.338 58.6838C116.699 46.9881 113.116 36.0905 111.663 23C117.784 26.5524 118.075 27.025 122.086 36.8797C126.696 12.399 139.769 1.84048 176.694 8.41589C213.619 14.9913 211.539 59.1334 211.539 59.1334C223.908 53.6132 230.932 56.5237 240.216 62.9617C240.369 63.0448 240.519 63.1483 240.663 63.2734C240.513 63.1686 240.364 63.0647 240.216 62.9617C235.15 60.2278 224.94 79.6071 220.9 81.9045C213.619 86.0447 206.115 79.3301 206.338 86.0447C208.134 140.004 108.733 139.587 100.763 78.7991Z" fill="url(#paint0_linear)"/>
<path d="M201.163 132.5L202.663 101L185.453 119.018L201.163 132.5Z" fill="#639414"/>
<path d="M166.663 75.4999C166.663 85.9933 161.276 84 152.163 84C143.05 84 127.163 75.4934 127.163 65C127.163 54.5066 150.55 62.9999 159.663 62.9999C168.776 62.9999 166.663 65.0065 166.663 75.4999Z" fill="url(#paint1_linear)"/>
<path d="M138.663 103.217C156.067 96.3766 166.028 92.8972 188.663 95.2166" stroke="#0F6818" stroke-width="4"/>
<path d="M184.163 58.5C177.256 63.4091 170.163 52.5 170.163 52.5C176.157 46.033 182.432 45.5719 190.662 44.5C190.662 44.5 190.274 54.1563 184.163 58.5Z" fill="#74D57E"/>
<path d="M181.163 57.5C174.663 59.5 170.663 52 170.663 52C171.613 51.4296 172.516 50.9331 173.398 50.5C177.571 48.45 180.259 45.8206 186.163 45.5C186.163 45.5 187.663 55.5 181.163 57.5Z" fill="#0FA958"/>
<path d="M179.163 55.5C173.663 57 171.663 51.5 171.663 51.5C175.243 49.1188 176.676 46.7726 181.163 46.5C181.163 46.5 184.663 54 179.163 55.5Z" fill="black"/>
<path d="M138.163 55.5C130.417 51.9023 138.163 39 138.163 39C147.663 43.5 150.163 47.5 153.163 54C153.163 54 144.439 58.4152 138.163 55.5Z" fill="#74D57E"/>
<path d="M141.021 53.5C136.604 48.3294 141.021 40.0821 141.021 40.0821C141.922 40.7277 142.737 41.3593 143.485 41.9963C147.024 45.0115 149.523 47.2093 152.163 52.5C152.163 52.5 145.439 58.6707 141.021 53.5Z" fill="#0FA958"/>
<path d="M142.583 51.813C139.898 46.7841 144.815 43.6115 144.815 43.6115C147.933 46.5732 150.539 47.4486 151.802 51.7623C151.802 51.7623 145.268 56.842 142.583 51.813Z" fill="black"/>
<path d="M164.663 55.5002C169.436 56.8405 168.663 49.5 181.163 46.5C193.663 43.5 192.163 44.0001 197.163 39" stroke="#0F6818"/>
<path d="M153.663 56.0002C153.663 50.6354 141.163 35.5 127.663 37.5001" stroke="#0F6818"/>
<defs>
<filter id="filter0_d" x="192.645" y="92.5" width="67.5177" height="128.805" filterUnits="userSpaceOnUse" color-interpolation-filters="sRGB">
<feFlood flood-opacity="0" result="BackgroundImageFix"/>
<feColorMatrix in="SourceAlpha" type="matrix" values="0 0 0 0 0 0 0 0 0 0 0 0 0 0 0 0 0 0 127 0"/>
<feOffset/>
<feGaussianBlur stdDeviation="2.5"/>
<feColorMatrix type="matrix" values="0 0 0 0 0.141667 0 0 0 0 0.135174 0 0 0 0 0.135174 0 0 0 0.2 0"/>
<feBlend mode="normal" in2="BackgroundImageFix" result="effect1_dropShadow"/>
<feBlend mode="normal" in="SourceGraphic" in2="effect1_dropShadow" result="shape"/>
</filter>
<linearGradient id="paint0_linear" x1="138" y1="102.5" x2="107.5" y2="146.5" gradientUnits="userSpaceOnUse">
<stop stop-color="#639414"/>
<stop offset="1" stop-color="#108A1C"/>
</linearGradient>
<linearGradient id="paint1_linear" x1="151.663" y1="61" x2="130.663" y2="69.5" gradientUnits="userSpaceOnUse">
<stop offset="0.213542" stop-color="#0F981C"/>
<stop offset="0.640625" stop-color="#088E16"/>
</linearGradient>
</defs>
</svg>
