<svg width="70" height="104" viewBox="0 0 70 104" fill="none" xmlns="http://www.w3.org/2000/svg">
<path d="M69.5859 104H2.50781V94.6484L37.9453 55.2734C43.1953 49.3203 46.8047 44.4922 48.7734 40.7891C50.7891 37.0391 51.7969 33.1719 51.7969 29.1875C51.7969 23.8438 50.1797 19.4609 46.9453 16.0391C43.7109 12.6172 39.3984 10.9062 34.0078 10.9062C27.5391 10.9062 22.5 12.7578 18.8906 16.4609C15.3281 20.1172 13.5469 25.2266 13.5469 31.7891H0.539062C0.539062 22.3672 3.5625 14.75 9.60938 8.9375C15.7031 3.125 23.8359 0.21875 34.0078 0.21875C43.5234 0.21875 51.0469 2.72656 56.5781 7.74219C62.1094 12.7109 64.875 19.3438 64.875 27.6406C64.875 37.7188 58.4531 49.7188 45.6094 63.6406L18.1875 93.3828H69.5859V104Z" fill="black"/>
</svg>
