<svg width="256" height="350" viewBox="0 0 256 350" fill="none" xmlns="http://www.w3.org/2000/svg">
<path d="M183.337 338.5C180.161 338.372 176.861 336.729 177.837 332.5C178.814 328.271 181.514 328.573 185.837 328.5L188.837 330.5L194.837 334L200.337 337.5L204.837 340L209.837 343C210.207 343.06 208.564 348.556 206.837 349C205.111 349.444 202.854 349.938 201.837 346.5C199.473 346.497 198.137 347.109 195.837 343.5C194.837 344 191.504 343.205 190.837 341C187.337 341 186.337 338.5 186.337 338.5C185.749 338.989 184.084 338.53 183.337 338.5Z" fill="#9C9C9C"/>
<path d="M123.663 112.5C117.163 115.5 111.381 112.851 82.1629 148L69.1629 134C71.9835 123.651 71.1002 117.849 69.1629 107.5C61.1629 91 36.6628 95 39.6629 125C41.1377 133.747 44.663 139 52.663 141C58.4172 155.515 67.663 180.607 82.1629 177.5C89.163 176 106.647 153.987 123.663 148C123.663 148 130.163 109.5 123.663 112.5Z" fill="#9C9C9C"/>
<path d="M111.663 209.5C109.663 169.5 106.455 145.865 125.663 112C163.387 124.584 182.08 125.905 202.663 98.5L217.163 138.5C215.445 173.13 215.808 189.681 218.163 215.5L111.663 209.5Z" fill="#9C9C9C"/>
<path d="M85.6628 235C108.129 237.819 120.391 236.409 142.163 233L137.163 218C137.163 218 77.1628 214 70.6628 220.5C60.2224 230.94 41.8019 253.927 41.1628 258C40.8222 260.171 31.8046 248.843 32.1628 245.5H5.66283C5.66283 245.5 4.1752 250.013 4.16283 253C4.12254 262.728 14.8828 264.027 19.6628 272.5C24.2782 280.681 19.9731 290.4 28.1628 295C29.6628 295.842 36.2306 298.434 41.1628 297C46.095 295.566 50.1628 274 50.1628 274C72.7827 255.459 87.7919 244.184 85.6628 235Z" fill="#9C9C9C"/>
<path d="M34.6628 235C36.844 239.083 32.1628 245.5 32.1628 245.5H23.6628C23.6628 245.5 22.1898 236.907 25.6628 234C29.2689 230.982 33.8922 233.558 34.6628 235Z" fill="#9C9C9C"/>
<path d="M19.3294 234.5C22.3766 233.167 23.3337 235.511 24.1628 237L23.6628 245.5H19.3294H15.4776H10.6628H7.16276L5.66284 246C5.66284 246 1.05332 242.564 0.16276 240.5C-0.727804 238.436 2.19041 236.002 5.16276 237C6.01156 234.546 9.85978 234.346 10.6628 235.5C12.2328 233.482 13.4654 233.501 15.9591 234.5C17.2754 232.957 18.0133 233.156 19.3294 234.5Z" fill="#9C9C9C"/>
<path d="M179.663 267L216.163 228L178.163 224C178.163 224 150.663 272 155.163 279.5C157.817 283.924 166.663 285.5 166.663 285.5C181.643 295.978 190.163 294.5 206.663 301C195.804 308.74 191.028 314.658 185.663 329L209.663 343.5C211.206 341.265 231.972 307.683 233.163 303C234.879 296.251 231.22 292.344 224.163 291.5C219.599 290.955 209.663 291.5 209.663 291.5C202.29 286.644 199.21 285.066 179.663 267Z" fill="#9C9C9C"/>
<path d="M209.663 189.5C170.189 192.602 147.638 195.943 110.663 189.5L108.663 205.5L81.6628 213L89.1628 214.5L87.6628 216L101.163 214.5L95.1628 222.5H116.663L106.163 238L129.663 222.5L120.163 237L135.663 232.5V245L148.663 232.5L141.663 245L158.663 232.5L150.663 248.5L174.663 234.5L184.663 245L186.163 232.5L201.663 238L196.163 227L209.663 237L208.663 228L219.163 234.5L215.663 225.5L228.163 227L209.663 189.5Z" fill="#545151"/>
<path d="M208.5 153L200.163 132.5L201.163 97.5C201.163 97.5 209.275 99.7711 214.163 102C237.414 112.602 255.163 153 255.163 153L227.163 188C227.163 188 228.895 213.324 217.663 216C206.43 218.676 197.663 203 197.663 197.5C197.663 192.49 203.472 188.724 204.506 188.093C203.499 188.692 197.962 191.954 197.663 191.5C197.334 191 201.663 182.5 203.663 181.5C205.663 180.5 217.663 180 217.663 180L208.5 153Z" fill="#9C9C9C"/>
<path d="M116.663 39.5C107.004 70.0848 55.1868 119.205 53.6628 135.5C48.2403 137.512 46.2732 136.711 45.1628 131C49.3722 131.778 62.0555 61.6501 69.1628 36C73.8229 19.182 81.1917 -2.06691 98.1628 1.99996C114.752 5.97518 122.663 20.5 116.663 39.5Z" fill="#6B6B6B"/>
<path d="M73.6628 56C77.5812 50.3876 78.1992 47.1416 73.6628 41L55.6628 47.5L73.6628 56Z" fill="#C4C4C4"/>
<path d="M86.1628 13.5C84.2513 17.4871 83.0593 19.4828 78.1628 17.5V0L86.1628 13.5Z" fill="#C4C4C4"/>
<path d="M112.663 21C106.546 21.5348 104.032 20.412 103.663 12L119.163 6.5L112.663 21Z" fill="#C4C4C4"/>
<path d="M87.6628 61.5C83.4948 62.042 82.2343 63.3164 82.6628 68C88.3718 72.0736 91.668 73.2685 97.6628 74C94.8632 68.1358 92.8415 65.2488 87.6628 61.5Z" fill="#C4C4C4"/>
<path d="M77.1628 85.5C74.4791 85.7204 72.7527 85.585 73.6628 90L84.1628 100.5L77.1628 85.5Z" fill="#C4C4C4"/>
<path d="M69.6628 78.5C71.2643 75.5653 71.7191 73.9205 66.1628 71L50.1628 78.5H69.6628Z" fill="#C4C4C4"/>
<path d="M66.663 103.5C64.983 120.059 60.7875 127.495 43.163 135C35.9117 120.461 36.6627 115.5 43.6628 104C50.663 92.5 67.0181 100 66.663 103.5Z" fill="#8A8E8B"/>
<path d="M100.763 78.7991C99.6639 70.4152 107.854 64.8554 113.338 58.6838C116.699 46.9881 113.116 36.0905 111.663 23C117.784 26.5524 118.075 27.025 122.086 36.8797C126.696 12.399 139.769 1.84048 176.694 8.41589C213.619 14.9913 211.539 59.1334 211.539 59.1334C223.908 53.6132 230.932 56.5237 240.216 62.9617C240.369 63.0448 240.519 63.1483 240.663 63.2734C240.513 63.1686 240.364 63.0647 240.216 62.9617C235.15 60.2278 224.94 79.6071 220.9 81.9045C213.619 86.0447 206.115 79.3301 206.338 86.0447C208.134 140.004 108.733 139.587 100.763 78.7991Z" fill="url(#paint0_linear)"/>
<path d="M201.163 132.5L202.663 101L185.453 119.018L201.163 132.5Z" fill="#9C9C9C"/>
<path d="M114.578 142V129.203H118.516C119.641 129.203 120.646 129.458 121.53 129.968C122.421 130.472 123.115 131.192 123.613 132.13C124.111 133.062 124.36 134.122 124.36 135.312V135.9C124.36 137.09 124.114 138.147 123.622 139.073C123.136 139.999 122.447 140.717 121.557 141.227C120.666 141.736 119.661 141.994 118.542 142H114.578ZM117.215 131.339V139.882H118.489C119.521 139.882 120.309 139.545 120.854 138.871C121.398 138.197 121.677 137.233 121.688 135.979V135.303C121.688 134.002 121.419 133.018 120.88 132.35C120.341 131.676 119.553 131.339 118.516 131.339H117.215ZM133.984 136.454H128.922V139.882H134.863V142H126.285V129.203H134.846V131.339H128.922V134.389H133.984V136.454ZM139.047 137.491V142H136.41V129.203H141.402C142.363 129.203 143.207 129.379 143.934 129.73C144.666 130.082 145.229 130.583 145.621 131.233C146.014 131.878 146.21 132.613 146.21 133.439C146.21 134.693 145.779 135.684 144.918 136.41C144.062 137.131 142.876 137.491 141.358 137.491H139.047ZM139.047 135.355H141.402C142.1 135.355 142.63 135.191 142.993 134.863C143.362 134.535 143.547 134.066 143.547 133.457C143.547 132.83 143.362 132.323 142.993 131.937C142.624 131.55 142.114 131.351 141.464 131.339H139.047V135.355ZM155.729 136.454H150.666V139.882H156.607V142H148.029V129.203H156.59V131.339H150.666V134.389H155.729V136.454ZM168.561 142H165.924L160.791 133.58V142H158.154V129.203H160.791L165.933 137.641V129.203H168.561V142ZM170.863 142V129.203H174.801C175.926 129.203 176.931 129.458 177.815 129.968C178.706 130.472 179.4 131.192 179.898 132.13C180.396 133.062 180.646 134.122 180.646 135.312V135.9C180.646 137.09 180.399 138.147 179.907 139.073C179.421 139.999 178.732 140.717 177.842 141.227C176.951 141.736 175.946 141.994 174.827 142H170.863ZM173.5 131.339V139.882H174.774C175.806 139.882 176.594 139.545 177.139 138.871C177.684 138.197 177.962 137.233 177.974 135.979V135.303C177.974 134.002 177.704 133.018 177.165 132.35C176.626 131.676 175.838 131.339 174.801 131.339H173.5ZM190.27 136.454H185.207V139.882H191.148V142H182.57V129.203H191.131V131.339H185.207V134.389H190.27V136.454ZM190.384 128.21V128.315H188.362L187.009 127.041L185.655 128.315H183.669V128.175L186.271 125.749H187.747L190.384 128.21ZM203.102 142H200.465L195.332 133.58V142H192.695V129.203H195.332L200.474 137.641V129.203H203.102V142ZM215.45 137.737C215.351 139.114 214.841 140.198 213.921 140.989C213.007 141.78 211.8 142.176 210.3 142.176C208.659 142.176 207.367 141.625 206.424 140.523C205.486 139.416 205.018 137.898 205.018 135.971V135.188C205.018 133.958 205.234 132.874 205.668 131.937C206.102 130.999 206.72 130.281 207.522 129.783C208.331 129.279 209.269 129.027 210.335 129.027C211.812 129.027 213.001 129.423 213.903 130.214C214.806 131.005 215.327 132.115 215.468 133.545H212.831C212.767 132.719 212.535 132.121 212.137 131.752C211.744 131.377 211.144 131.189 210.335 131.189C209.456 131.189 208.797 131.506 208.357 132.139C207.924 132.766 207.701 133.741 207.689 135.065V136.032C207.689 137.415 207.897 138.426 208.313 139.064C208.735 139.703 209.397 140.022 210.3 140.022C211.114 140.022 211.721 139.838 212.119 139.469C212.523 139.094 212.755 138.517 212.813 137.737H215.45ZM219.985 142H217.349V129.203H219.985V142ZM229.82 139.363H225.197L224.318 142H221.515L226.278 129.203H228.722L233.512 142H230.708L229.82 139.363ZM225.909 137.228H229.108L227.5 132.438L225.909 137.228Z" fill="black"/>
<defs>
<linearGradient id="paint0_linear" x1="138" y1="102.5" x2="71.5" y2="115.5" gradientUnits="userSpaceOnUse">
<stop stop-color="#9C9C9C"/>
<stop offset="1" stop-color="#585A58"/>
</linearGradient>
</defs>
</svg>
