<svg width="43" height="373" viewBox="0 0 43 373" fill="none" xmlns="http://www.w3.org/2000/svg">
<path d="M9.88936 185.626C10.6999 192.921 15.3319 291.837 9.88936 359.893C1.02879 360.668 0.973411 365.039 0.973411 370.43C0.973411 372.456 39.8909 373.267 40.2846 370.43C41.1997 363.836 41.4531 360.297 32.1792 359.893C26.8053 290.41 31.7741 193.732 32.9898 186.437C34.2055 179.142 39.474 158.878 39.474 150.773C39.474 142.667 43.932 15.007 42.311 10.5492C30.1528 -7.2829 3.40493 0.822563 0.568039 10.5492C-1.37422 36.0308 2.2961 117.504 2.18912 150.773C2.15129 162.537 9.07882 178.331 9.88936 185.626Z" fill="#E6D6BA"/>
<path d="M32.5844 190.489H10.2945C13.341 256.785 13.0041 294.906 9.88925 359.892H32.1931C28.9947 293.393 28.5256 256.353 32.5844 190.489Z" fill="#A01D0E"/>
</svg>
