<svg width="269" height="327" viewBox="0 0 269 327" fill="none" xmlns="http://www.w3.org/2000/svg">
<mask id="path-1-inside-1_403_112" fill="white">
<path fill-rule="evenodd" clip-rule="evenodd" d="M222.587 11.0029C144.307 11.4941 81 75.104 81 153.5C81 232.201 144.799 296 223.5 296C239.287 296 254.474 293.433 268.667 288.693C240.239 312.599 203.551 327 163.5 327C73.2014 327 0 253.799 0 163.5C0 73.2014 73.2014 0 163.5 0C184.336 0 204.261 3.89737 222.587 11.0029Z"/>
</mask>
<path fill-rule="evenodd" clip-rule="evenodd" d="M222.587 11.0029C144.307 11.4941 81 75.104 81 153.5C81 232.201 144.799 296 223.5 296C239.287 296 254.474 293.433 268.667 288.693C240.239 312.599 203.551 327 163.5 327C73.2014 327 0 253.799 0 163.5C0 73.2014 73.2014 0 163.5 0C184.336 0 204.261 3.89737 222.587 11.0029Z" fill="#EAEAEA"/>
<path d="M222.587 11.0029L222.599 13.0028L223.31 9.13813L222.587 11.0029ZM268.667 288.693L269.954 290.224L268.034 286.796L268.667 288.693ZM83 153.5C83 76.2044 145.418 13.4872 222.599 13.0028L222.574 9.0029C143.195 9.50104 79 74.0037 79 153.5H83ZM223.5 294C145.904 294 83 231.096 83 153.5H79C79 233.305 143.695 298 223.5 298V294ZM268.034 286.796C254.042 291.468 239.069 294 223.5 294V298C239.505 298 254.906 295.397 269.301 290.59L268.034 286.796ZM267.38 287.162C239.298 310.777 203.063 325 163.5 325V329C204.039 329 241.179 314.422 269.954 290.224L267.38 287.162ZM163.5 325C74.306 325 2 252.694 2 163.5H-2C-2 254.903 72.0969 329 163.5 329V325ZM2 163.5C2 74.306 74.306 2 163.5 2V-2C72.0969 -2 -2 72.0969 -2 163.5H2ZM163.5 2C184.084 2 203.765 5.85008 221.864 12.8676L223.31 9.13813C204.757 1.94466 184.587 -2 163.5 -2V2Z" fill="#FEDE9F" mask="url(#path-1-inside-1_403_112)"/>
</svg>
