<svg width="128" height="153" viewBox="0 0 128 153" fill="none" xmlns="http://www.w3.org/2000/svg">
<path d="M78.5 152H47.5C47.5 152 59.6488 129.886 55 116.5C52.3861 108.974 47.5 107.5 47.5 107.5C47.5 107.5 12.1319 112.457 3.00003 76.5003C-5.00001 45.0003 17 45.0003 17 45.0003C17 45.0003 7.58918 33.5 12 24C20.5 5.69281 39 11.5 39 11.5C39 11.5 45.5 1 63 1.00012C81.6078 1.00025 84.5 14.5003 84.5 14.5003C84.5 14.5003 97.5023 3.90313 111 21.0003C126 40.0003 109.5 47.5003 109.5 47.5003C109.5 47.5003 136.363 45.6839 123 88.0003C117 107 74 107.5 74 107.5C74 107.5 73.5 106.5 72 115C69.5145 129.085 78.5 152 78.5 152Z" fill="#0F6818" stroke="#FDEFD5"/>
</svg>
