<svg width="140" height="107" viewBox="0 0 140 107" fill="none" xmlns="http://www.w3.org/2000/svg">
<path d="M0 39.4999C0 39.4999 41.5 39.4999 61 39.4999C70.6945 39.4999 77.0006 28.4858 75 18.9999C73.1217 10.0936 63.7383 0.707303 56 5.49994C48.8619 9.92086 48.8619 22.579 56 26.9999" stroke="#FEDE9F" stroke-width="7"/>
<path d="M2 39.4999C2 39.4999 41.5 39.4999 61 39.4999C70.6945 39.4999 77.0006 28.4858 75 18.9999C73.1217 10.0936 63.7383 0.707303 56 5.49994C48.8619 9.92086 49 20.5 54.5 25.5" stroke="#2EB1C1" stroke-width="3"/>
<path d="M48 68C48 68 89.5 68 109 68C118.695 68 125.001 79.0142 123 88.5C121.122 97.4064 111.738 106.793 104 102C96.8619 97.5791 96.8619 84.921 104 80.5" stroke="#FEDE9F" stroke-width="7"/>
<path d="M50 68C50 68 89.5 68 109 68C118.695 68 125.001 79.0142 123 88.5C121.122 97.4064 111.738 106.793 104 102C96.8619 97.5791 97 87 102.5 82" stroke="#2EB1C1" stroke-width="3"/>
<path d="M18 54C18 54 82.9724 54 113.502 54C128.679 54 138.552 38.4612 135.42 25.0786C132.479 12.5135 117.789 -0.728684 105.674 6.03277C94.4982 12.2698 91.5 33 105 34.5C118.5 36 118 21.5 118 21.5" stroke="#FEDE9F" stroke-width="7"/>
<path d="M21.1313 54C21.1313 54 82.9726 54 113.502 54C128.68 54 138.552 38.4612 135.42 25.0786C132.479 12.5135 117.789 -0.728684 105.674 6.03277C94.4983 12.2698 90.6508 30.9978 103.325 34.2489C116 37.5 118 23.5 118 23.5" stroke="#2EB1C1" stroke-width="3"/>
</svg>
