<svg width="404" height="414" viewBox="0 0 404 414" fill="none" xmlns="http://www.w3.org/2000/svg">
<mask id="path-1-inside-1_403_107" fill="white">
<path fill-rule="evenodd" clip-rule="evenodd" d="M216.781 109.142L202 0L187.219 109.142C182.325 109.906 177.551 111.043 172.927 112.524L112.186 20.4995L146.421 125.852C142.571 128.604 138.926 131.634 135.514 134.913L40.1609 77.9376L117.335 158.65C115.166 162.598 113.255 166.713 111.624 170.971L0.189926 160.938L105.215 200.351C105.073 202.549 105 204.766 105 207C105 209.234 105.073 211.451 105.215 213.649L0.189926 253.062L111.624 243.029C113.255 247.287 115.166 251.402 117.335 255.35L40.1609 336.062L135.514 279.087C138.926 282.366 142.571 285.396 146.421 288.148L112.186 393.501L172.927 301.476C177.551 302.957 182.325 304.094 187.219 304.858L202 414L216.781 304.858C221.675 304.094 226.449 302.957 231.073 301.476L291.814 393.501L257.579 288.148C261.429 285.396 265.074 282.366 268.486 279.087L363.839 336.062L286.665 255.35C288.834 251.402 290.745 247.287 292.376 243.029L403.81 253.062L298.785 213.649C298.927 211.451 299 209.234 299 207C299 204.766 298.927 202.549 298.785 200.351L403.81 160.938L292.376 170.971C290.745 166.713 288.834 162.598 286.665 158.65L363.839 77.9376L268.486 134.913C265.074 131.634 261.429 128.604 257.579 125.852L291.814 20.4995L231.073 112.524C226.449 111.043 221.675 109.906 216.781 109.142Z"/>
</mask>
<path fill-rule="evenodd" clip-rule="evenodd" d="M216.781 109.142L202 0L187.219 109.142C182.325 109.906 177.551 111.043 172.927 112.524L112.186 20.4995L146.421 125.852C142.571 128.604 138.926 131.634 135.514 134.913L40.1609 77.9376L117.335 158.65C115.166 162.598 113.255 166.713 111.624 170.971L0.189926 160.938L105.215 200.351C105.073 202.549 105 204.766 105 207C105 209.234 105.073 211.451 105.215 213.649L0.189926 253.062L111.624 243.029C113.255 247.287 115.166 251.402 117.335 255.35L40.1609 336.062L135.514 279.087C138.926 282.366 142.571 285.396 146.421 288.148L112.186 393.501L172.927 301.476C177.551 302.957 182.325 304.094 187.219 304.858L202 414L216.781 304.858C221.675 304.094 226.449 302.957 231.073 301.476L291.814 393.501L257.579 288.148C261.429 285.396 265.074 282.366 268.486 279.087L363.839 336.062L286.665 255.35C288.834 251.402 290.745 247.287 292.376 243.029L403.81 253.062L298.785 213.649C298.927 211.451 299 209.234 299 207C299 204.766 298.927 202.549 298.785 200.351L403.81 160.938L292.376 170.971C290.745 166.713 288.834 162.598 286.665 158.65L363.839 77.9376L268.486 134.913C265.074 131.634 261.429 128.604 257.579 125.852L291.814 20.4995L231.073 112.524C226.449 111.043 221.675 109.906 216.781 109.142Z" fill="#EDA212"/>
<path d="M202 0L203.982 -0.268404H200.018L202 0ZM216.781 109.142L214.799 109.41L214.999 110.888L216.472 111.118L216.781 109.142ZM187.219 109.142L187.528 111.118L189.001 110.888L189.201 109.41L187.219 109.142ZM172.927 112.524L171.257 113.625L172.093 114.891L173.537 114.428L172.927 112.524ZM112.186 20.4995L113.855 19.3977L110.284 21.1175L112.186 20.4995ZM146.421 125.852L147.584 127.479L148.776 126.627L148.323 125.234L146.421 125.852ZM135.514 134.913L134.489 136.63L135.799 137.413L136.9 136.355L135.514 134.913ZM40.1609 77.9376L41.1867 76.2207L38.7153 79.3198L40.1609 77.9376ZM117.335 158.65L119.088 159.613L119.794 158.328L118.781 157.268L117.335 158.65ZM111.624 170.971L111.444 172.963L112.951 173.098L113.491 171.686L111.624 170.971ZM0.189926 160.938L0.369268 158.946L-0.512764 162.811L0.189926 160.938ZM105.215 200.351L107.211 200.481L107.307 199L105.918 198.479L105.215 200.351ZM105.215 213.649L105.918 215.521L107.307 215L107.211 213.519L105.215 213.649ZM0.189926 253.062L-0.512764 251.189L0.369268 255.054L0.189926 253.062ZM111.624 243.029L113.491 242.314L112.951 240.902L111.444 241.037L111.624 243.029ZM117.335 255.35L118.781 256.732L119.794 255.672L119.088 254.387L117.335 255.35ZM40.1609 336.062L38.7153 334.68L41.1867 337.779L40.1609 336.062ZM135.514 279.087L136.9 277.645L135.799 276.587L134.489 277.37L135.514 279.087ZM146.421 288.148L148.323 288.766L148.776 287.373L147.584 286.521L146.421 288.148ZM112.186 393.501L110.284 392.882L113.855 394.602L112.186 393.501ZM172.927 301.476L173.537 299.572L172.093 299.109L171.257 300.375L172.927 301.476ZM187.219 304.858L189.201 304.59L189.001 303.112L187.528 302.882L187.219 304.858ZM202 414L200.018 414.268H203.982L202 414ZM216.781 304.858L216.472 302.882L214.999 303.112L214.799 304.59L216.781 304.858ZM231.073 301.476L232.743 300.375L231.907 299.109L230.463 299.572L231.073 301.476ZM291.814 393.501L290.145 394.602L293.716 392.882L291.814 393.501ZM257.579 288.148L256.416 286.521L255.224 287.373L255.677 288.766L257.579 288.148ZM268.486 279.087L269.511 277.37L268.201 276.587L267.1 277.645L268.486 279.087ZM363.839 336.062L362.813 337.779L365.285 334.68L363.839 336.062ZM286.665 255.35L284.912 254.387L284.206 255.672L285.219 256.732L286.665 255.35ZM292.376 243.029L292.556 241.037L291.049 240.902L290.509 242.314L292.376 243.029ZM403.81 253.062L403.631 255.054L404.513 251.189L403.81 253.062ZM298.785 213.649L296.789 213.519L296.693 215L298.082 215.521L298.785 213.649ZM298.785 200.351L298.082 198.479L296.693 199L296.789 200.481L298.785 200.351ZM403.81 160.938L404.513 162.811L403.631 158.946L403.81 160.938ZM292.376 170.971L290.509 171.686L291.049 173.098L292.556 172.963L292.376 170.971ZM286.665 158.65L285.219 157.268L284.206 158.328L284.912 159.613L286.665 158.65ZM363.839 77.9376L365.285 79.3198L362.813 76.2207L363.839 77.9376ZM268.486 134.913L267.1 136.355L268.201 137.413L269.511 136.63L268.486 134.913ZM257.579 125.852L255.677 125.234L255.224 126.627L256.416 127.479L257.579 125.852ZM291.814 20.4995L293.716 21.1175L290.145 19.3977L291.814 20.4995ZM231.073 112.524L230.463 114.428L231.907 114.891L232.743 113.625L231.073 112.524ZM200.018 0.268404L214.799 109.41L218.763 108.874L203.982 -0.268404L200.018 0.268404ZM189.201 109.41L203.982 0.268404L200.018 -0.268404L185.237 108.874L189.201 109.41ZM173.537 114.428C178.064 112.979 182.737 111.866 187.528 111.118L186.911 107.166C181.914 107.946 177.039 109.107 172.317 110.619L173.537 114.428ZM110.517 21.6012L171.257 113.625L174.596 111.422L113.855 19.3977L110.517 21.6012ZM148.323 125.234L114.088 19.8814L110.284 21.1175L144.519 126.47L148.323 125.234ZM136.9 136.355C140.243 133.142 143.813 130.174 147.584 127.479L145.258 124.225C141.329 127.033 137.61 130.125 134.129 133.471L136.9 136.355ZM39.135 79.6545L134.489 136.63L136.54 133.196L41.1867 76.2207L39.135 79.6545ZM118.781 157.268L41.6064 76.5554L38.7153 79.3198L115.889 160.032L118.781 157.268ZM113.491 171.686C115.09 167.514 116.963 163.482 119.088 159.613L115.582 157.687C113.37 161.714 111.42 165.912 109.756 170.256L113.491 171.686ZM0.0105848 162.93L111.444 172.963L111.803 168.979L0.369268 158.946L0.0105848 162.93ZM105.918 198.479L0.892616 159.066L-0.512764 162.811L104.513 202.224L105.918 198.479ZM107 207C107 204.809 107.071 202.635 107.211 200.481L103.22 200.221C103.074 202.462 103 204.722 103 207H107ZM107.211 213.519C107.071 211.365 107 209.191 107 207H103C103 209.278 103.074 211.538 103.22 213.779L107.211 213.519ZM0.892616 254.934L105.918 215.521L104.513 211.776L-0.512764 251.189L0.892616 254.934ZM111.444 241.037L0.0105848 251.07L0.369268 255.054L111.803 245.021L111.444 241.037ZM119.088 254.387C116.963 250.518 115.09 246.486 113.491 242.314L109.756 243.744C111.42 248.088 113.37 252.286 115.582 256.313L119.088 254.387ZM41.6064 337.445L118.781 256.732L115.889 253.968L38.7153 334.68L41.6064 337.445ZM134.489 277.37L39.135 334.346L41.1867 337.779L136.54 280.804L134.489 277.37ZM147.584 286.521C143.813 283.826 140.243 280.858 136.9 277.645L134.129 280.529C137.61 283.875 141.329 286.967 145.258 289.775L147.584 286.521ZM114.088 394.119L148.323 288.766L144.519 287.53L110.284 392.882L114.088 394.119ZM171.257 300.375L110.517 392.399L113.855 394.602L174.596 302.578L171.257 300.375ZM187.528 302.882C182.737 302.134 178.064 301.021 173.537 299.572L172.317 303.381C177.039 304.893 181.914 306.054 186.911 306.834L187.528 302.882ZM203.982 413.732L189.201 304.59L185.237 305.126L200.018 414.268L203.982 413.732ZM214.799 304.59L200.018 413.732L203.982 414.268L218.763 305.126L214.799 304.59ZM230.463 299.572C225.936 301.021 221.263 302.134 216.472 302.882L217.089 306.834C222.086 306.054 226.961 304.893 231.683 303.381L230.463 299.572ZM293.483 392.399L232.743 300.375L229.404 302.578L290.145 394.602L293.483 392.399ZM255.677 288.766L289.912 394.119L293.716 392.882L259.481 287.53L255.677 288.766ZM267.1 277.645C263.757 280.858 260.187 283.826 256.416 286.521L258.742 289.775C262.671 286.967 266.39 283.875 269.871 280.529L267.1 277.645ZM364.865 334.346L269.511 277.37L267.46 280.804L362.813 337.779L364.865 334.346ZM285.219 256.732L362.394 337.445L365.285 334.68L288.111 253.968L285.219 256.732ZM290.509 242.314C288.91 246.486 287.037 250.518 284.912 254.387L288.418 256.313C290.63 252.286 292.58 248.088 294.244 243.744L290.509 242.314ZM403.989 251.07L292.556 241.037L292.197 245.021L403.631 255.054L403.989 251.07ZM298.082 215.521L403.107 254.934L404.513 251.189L299.487 211.776L298.082 215.521ZM297 207C297 209.191 296.929 211.365 296.789 213.519L300.78 213.779C300.926 211.538 301 209.278 301 207H297ZM296.789 200.481C296.929 202.635 297 204.809 297 207H301C301 204.722 300.926 202.462 300.78 200.221L296.789 200.481ZM403.107 159.066L298.082 198.479L299.487 202.224L404.513 162.811L403.107 159.066ZM292.556 172.963L403.989 162.93L403.631 158.946L292.197 168.979L292.556 172.963ZM284.912 159.613C287.037 163.482 288.91 167.514 290.509 171.686L294.244 170.256C292.58 165.912 290.63 161.714 288.418 157.687L284.912 159.613ZM362.394 76.5554L285.219 157.268L288.111 160.032L365.285 79.3198L362.394 76.5554ZM269.511 136.63L364.865 79.6545L362.813 76.2207L267.46 133.196L269.511 136.63ZM256.416 127.479C260.187 130.174 263.757 133.142 267.1 136.355L269.871 133.471C266.39 130.125 262.671 127.033 258.742 124.225L256.416 127.479ZM289.912 19.8814L255.677 125.234L259.481 126.47L293.716 21.1175L289.912 19.8814ZM232.743 113.625L293.483 21.6012L290.145 19.3977L229.404 111.422L232.743 113.625ZM216.472 111.118C221.263 111.866 225.936 112.979 230.463 114.428L231.683 110.619C226.961 109.107 222.086 107.946 217.089 107.166L216.472 111.118Z" fill="#FEDE9F" mask="url(#path-1-inside-1_403_107)"/>
</svg>
