<svg width="212" height="340" viewBox="0 0 212 340" fill="none" xmlns="http://www.w3.org/2000/svg">
<path d="M0 108.253V92.5643H211.351V108.253H113.856L118.339 340H93.909L88.53 108.253H0Z" fill="#545151"/>
<path d="M101.978 0C148.372 -2.32854e-05 122.597 56.2558 122.597 56.2558C124.692 70.1036 132.373 73.1488 149.044 76.4272C163.458 81.3927 177.123 78.0927 191.408 74.6429L192 74.5C195.189 95.7131 194.186 108.144 186 126C174.415 117.779 170.791 136.653 168.5 145C161.5 170.5 150.336 199.108 132 221.5H80.6854C62.1016 205.775 45.5 185.5 31.4999 145C27.9803 134.818 31.4999 121.5 11.5 126C6.49994 102.5 13.5 93.5 17 74.41C28.166 78.5705 42.1947 78.8771 54.4626 76.4272C75.1538 70.0931 80.0593 65.5527 80.6854 56.2558C80.6854 56.2558 55.5833 2.32854e-05 101.978 0Z" fill="#C4C4C4"/>
<path d="M122.373 56.2558C105.513 58.9512 95.6238 60.6959 80.6855 57.8247C76.2496 60.2308 77.6131 62.2676 78.2201 66.5656H126.407C125.795 62.4655 124.941 60.2059 122.373 56.2558Z" fill="#545151"/>
<path d="M63.6543 113.454H58.5918V116.882H64.5332V119H55.9551V106.203H64.5156V108.339H58.5918V111.389H63.6543V113.454ZM72.7158 115.643C72.7158 115.145 72.54 114.764 72.1885 114.5C71.8369 114.23 71.2041 113.949 70.29 113.656C69.376 113.357 68.6523 113.064 68.1191 112.777C66.666 111.992 65.9395 110.935 65.9395 109.604C65.9395 108.913 66.1328 108.298 66.5195 107.759C66.9121 107.214 67.4717 106.789 68.1982 106.484C68.9307 106.18 69.751 106.027 70.6592 106.027C71.5732 106.027 72.3877 106.194 73.1025 106.528C73.8174 106.856 74.3711 107.322 74.7637 107.926C75.1621 108.529 75.3613 109.215 75.3613 109.982H72.7246C72.7246 109.396 72.54 108.942 72.1709 108.62C71.8018 108.292 71.2832 108.128 70.6152 108.128C69.9707 108.128 69.4697 108.266 69.1123 108.541C68.7549 108.811 68.5762 109.168 68.5762 109.613C68.5762 110.029 68.7842 110.378 69.2002 110.659C69.6221 110.94 70.2402 111.204 71.0547 111.45C72.5547 111.901 73.6475 112.461 74.333 113.129C75.0186 113.797 75.3613 114.629 75.3613 115.625C75.3613 116.732 74.9424 117.603 74.1045 118.235C73.2666 118.862 72.1387 119.176 70.7207 119.176C69.7363 119.176 68.8398 118.997 68.0312 118.64C67.2227 118.276 66.6045 117.781 66.1768 117.154C65.7549 116.527 65.5439 115.801 65.5439 114.975H68.1895C68.1895 116.387 69.0332 117.093 70.7207 117.093C71.3477 117.093 71.8369 116.967 72.1885 116.715C72.54 116.457 72.7158 116.1 72.7158 115.643ZM79.791 114.491V119H77.1543V106.203H82.1465C83.1074 106.203 83.9512 106.379 84.6777 106.73C85.4102 107.082 85.9727 107.583 86.3652 108.233C86.7578 108.878 86.9541 109.613 86.9541 110.439C86.9541 111.693 86.5234 112.684 85.6621 113.41C84.8066 114.131 83.6201 114.491 82.1025 114.491H79.791ZM79.791 112.355H82.1465C82.8438 112.355 83.374 112.191 83.7373 111.863C84.1064 111.535 84.291 111.066 84.291 110.457C84.291 109.83 84.1064 109.323 83.7373 108.937C83.3682 108.55 82.8584 108.351 82.208 108.339H79.791V112.355ZM91.5771 119H88.9404V106.203H91.5771V119ZM101.412 116.363H96.7891L95.9102 119H93.1064L97.8701 106.203H100.313L105.104 119H102.3L101.412 116.363ZM97.501 114.228H100.7L99.0918 109.438L97.501 114.228ZM102.432 102.898C102.432 103.561 102.238 104.117 101.852 104.568C101.465 105.014 100.993 105.236 100.437 105.236C100.214 105.236 100.015 105.213 99.8389 105.166C99.6689 105.113 99.4316 105.005 99.127 104.841C98.8223 104.677 98.6025 104.577 98.4678 104.542C98.333 104.501 98.1865 104.48 98.0283 104.48C97.8232 104.48 97.6475 104.554 97.501 104.7C97.3604 104.847 97.29 105.055 97.29 105.324L95.8135 105.236C95.8135 104.586 96.0039 104.032 96.3848 103.575C96.7715 103.118 97.2432 102.89 97.7998 102.89C97.9756 102.89 98.1396 102.913 98.292 102.96C98.4502 103.001 98.7051 103.106 99.0566 103.276C99.4082 103.446 99.6514 103.549 99.7861 103.584C99.9209 103.619 100.062 103.637 100.208 103.637C100.413 103.637 100.589 103.566 100.735 103.426C100.888 103.279 100.964 103.071 100.964 102.802L102.432 102.898ZM116.617 112.892C116.617 114.151 116.395 115.256 115.949 116.205C115.504 117.154 114.865 117.887 114.033 118.402C113.207 118.918 112.258 119.176 111.186 119.176C110.125 119.176 109.179 118.921 108.347 118.411C107.515 117.901 106.87 117.175 106.413 116.231C105.956 115.282 105.725 114.192 105.719 112.962V112.329C105.719 111.069 105.944 109.962 106.396 109.007C106.853 108.046 107.494 107.311 108.32 106.801C109.152 106.285 110.102 106.027 111.168 106.027C112.234 106.027 113.181 106.285 114.007 106.801C114.839 107.311 115.48 108.046 115.932 109.007C116.389 109.962 116.617 111.066 116.617 112.32V112.892ZM113.945 112.312C113.945 110.97 113.705 109.95 113.225 109.253C112.744 108.556 112.059 108.207 111.168 108.207C110.283 108.207 109.601 108.553 109.12 109.244C108.64 109.93 108.396 110.938 108.391 112.268V112.892C108.391 114.198 108.631 115.212 109.111 115.933C109.592 116.653 110.283 117.014 111.186 117.014C112.07 117.014 112.75 116.668 113.225 115.977C113.699 115.279 113.939 114.266 113.945 112.936V112.312ZM123.016 119V106.203H126.953C128.078 106.203 129.083 106.458 129.968 106.968C130.858 107.472 131.553 108.192 132.051 109.13C132.549 110.062 132.798 111.122 132.798 112.312V112.9C132.798 114.09 132.552 115.147 132.06 116.073C131.573 116.999 130.885 117.717 129.994 118.227C129.104 118.736 128.099 118.994 126.979 119H123.016ZM125.652 108.339V116.882H126.927C127.958 116.882 128.746 116.545 129.291 115.871C129.836 115.197 130.114 114.233 130.126 112.979V112.303C130.126 111.002 129.856 110.018 129.317 109.35C128.778 108.676 127.99 108.339 126.953 108.339H125.652ZM142.422 113.454H137.359V116.882H143.301V119H134.723V106.203H143.283V108.339H137.359V111.389H142.422V113.454ZM42.5781 140V127.203H46.5156C47.6406 127.203 48.6455 127.458 49.5303 127.968C50.4209 128.472 51.1152 129.192 51.6133 130.13C52.1113 131.062 52.3604 132.122 52.3604 133.312V133.9C52.3604 135.09 52.1143 136.147 51.6221 137.073C51.1357 137.999 50.4473 138.717 49.5566 139.227C48.666 139.736 47.6611 139.994 46.542 140H42.5781ZM45.2148 129.339V137.882H46.4893C47.5205 137.882 48.3086 137.545 48.8535 136.871C49.3984 136.197 49.6768 135.233 49.6885 133.979V133.303C49.6885 132.002 49.4189 131.018 48.8799 130.35C48.3408 129.676 47.5527 129.339 46.5156 129.339H45.2148ZM61.9844 134.454H56.9219V137.882H62.8633V140H54.2852V127.203H62.8457V129.339H56.9219V132.389H61.9844V134.454ZM67.0469 135.491V140H64.4102V127.203H69.4023C70.3633 127.203 71.207 127.379 71.9336 127.73C72.666 128.082 73.2285 128.583 73.6211 129.233C74.0137 129.878 74.21 130.613 74.21 131.439C74.21 132.693 73.7793 133.684 72.918 134.41C72.0625 135.131 70.876 135.491 69.3584 135.491H67.0469ZM67.0469 133.355H69.4023C70.0996 133.355 70.6299 133.191 70.9932 132.863C71.3623 132.535 71.5469 132.066 71.5469 131.457C71.5469 130.83 71.3623 130.323 70.9932 129.937C70.624 129.55 70.1143 129.351 69.4639 129.339H67.0469V133.355ZM83.7285 134.454H78.666V137.882H84.6074V140H76.0293V127.203H84.5898V129.339H78.666V132.389H83.7285V134.454ZM96.5605 140H93.9238L88.791 131.58V140H86.1543V127.203H88.791L93.9326 135.641V127.203H96.5605V140ZM98.8633 140V127.203H102.801C103.926 127.203 104.931 127.458 105.815 127.968C106.706 128.472 107.4 129.192 107.898 130.13C108.396 131.062 108.646 132.122 108.646 133.312V133.9C108.646 135.09 108.399 136.147 107.907 137.073C107.421 137.999 106.732 138.717 105.842 139.227C104.951 139.736 103.946 139.994 102.827 140H98.8633ZM101.5 129.339V137.882H102.774C103.806 137.882 104.594 137.545 105.139 136.871C105.684 136.197 105.962 135.233 105.974 133.979V133.303C105.974 132.002 105.704 131.018 105.165 130.35C104.626 129.676 103.838 129.339 102.801 129.339H101.5ZM118.27 134.454H113.207V137.882H119.148V140H110.57V127.203H119.131V129.339H113.207V132.389H118.27V134.454ZM118.384 126.21V126.315H116.362L115.009 125.041L113.655 126.315H111.669V126.175L114.271 123.749H115.747L118.384 126.21ZM131.102 140H128.465L123.332 131.58V140H120.695V127.203H123.332L128.474 135.641V127.203H131.102V140ZM143.45 135.737C143.351 137.114 142.841 138.198 141.921 138.989C141.007 139.78 139.8 140.176 138.3 140.176C136.659 140.176 135.367 139.625 134.424 138.523C133.486 137.416 133.018 135.898 133.018 133.971V133.188C133.018 131.958 133.234 130.874 133.668 129.937C134.102 128.999 134.72 128.281 135.522 127.783C136.331 127.279 137.269 127.027 138.335 127.027C139.812 127.027 141.001 127.423 141.903 128.214C142.806 129.005 143.327 130.115 143.468 131.545H140.831C140.767 130.719 140.535 130.121 140.137 129.752C139.744 129.377 139.144 129.189 138.335 129.189C137.456 129.189 136.797 129.506 136.357 130.139C135.924 130.766 135.701 131.741 135.689 133.065V134.032C135.689 135.415 135.897 136.426 136.313 137.064C136.735 137.703 137.397 138.022 138.3 138.022C139.114 138.022 139.721 137.838 140.119 137.469C140.523 137.094 140.755 136.517 140.813 135.737H143.45ZM147.985 140H145.349V127.203H147.985V140ZM157.82 137.363H153.197L152.318 140H149.515L154.278 127.203H156.722L161.512 140H158.708L157.82 137.363ZM153.909 135.228H157.108L155.5 130.438L153.909 135.228Z" fill="black"/>
</svg>
